<svg width="251" height="169" viewBox="0 0 251 169" fill="none" xmlns="http://www.w3.org/2000/svg">
<path d="M10.4567 2C10.1303 3.49272 9.80386 4.98545 8.4557 27.1863C7.10754 49.3871 4.74754 92.2507 3.58718 116.093C2.53761 143.459 2.36584 150.441 2.01364 156.62C1.94736 159.446 2.10938 161.645 2.79255 166.388" stroke="black" stroke-width="4" stroke-linecap="round"/>
<path d="M11.4609 81.0673C11.5229 81.0673 17.098 81.0101 26.8096 81.0712C33.6162 81.114 45.0175 84.7688 58.9092 89.9074C65.8565 92.4772 68.6711 96.6099 71.6026 100.34C75.5715 105.39 74.3659 113.609 73.2594 119.253C71.2006 129.755 50.1848 144.861 40.6471 150.638C27.4921 155.803 19.1936 159.491 14.5595 161.322C14.0878 161.496 17.433 160.139 20.8796 158.741" stroke="black" stroke-width="4" stroke-linecap="round"/>
<path d="M94.0828 74.7032C94.0732 74.7032 94.0637 74.7032 94.2149 83.7167C94.366 92.7302 94.6781 110.757 95.4268 122.764C97.1087 149.734 104.497 159.005 109.974 163.6C111.192 164.623 112.377 164.765 113.469 164.768C120.98 164.786 131.731 155.176 140.773 144.512C143.465 140.349 147.516 128.515 152.517 105.679C154.38 92.9943 154.873 78.0838 155.06 62.5156" stroke="black" stroke-width="4" stroke-linecap="round"/>
<path d="M187.34 43.3359C187.34 43.3741 187.34 43.4122 190.059 55.9562C192.778 68.5001 198.217 93.5488 201.035 110.973C203.854 128.397 203.889 137.438 204.397 146.649" stroke="black" stroke-width="4" stroke-linecap="round"/>
<path d="M157.691 47.1608C157.782 47.1381 157.872 47.1155 172.866 44.8618C187.86 42.608 217.753 38.1239 248.553 33.5039" stroke="black" stroke-width="4" stroke-linecap="round"/>
</svg>
