<svg width="651" height="654" viewBox="0 0 651 654" fill="none" xmlns="http://www.w3.org/2000/svg">
<path opacity="0.276" d="M396.328 13.7188H369.524C362.122 13.7188 356.121 19.7192 356.121 27.1212V53.9261C356.121 61.328 362.122 67.3285 369.524 67.3285H396.328C403.73 67.3285 409.731 61.328 409.731 53.9261V27.1212C409.731 19.7192 403.73 13.7188 396.328 13.7188Z" fill="#DDFE55"/>
<path opacity="0.115" d="M281.453 71.1602H254.649C247.247 71.1602 241.246 77.1606 241.246 84.5626V111.367C241.246 118.769 247.247 124.77 254.649 124.77H281.453C288.855 124.77 294.856 118.769 294.856 111.367V84.5626C294.856 77.1606 288.855 71.1602 281.453 71.1602Z" fill="#DDFE55"/>
<path opacity="0.155" d="M396.328 71.1602H369.524C362.122 71.1602 356.121 77.1606 356.121 84.5626V111.367C356.121 118.769 362.122 124.77 369.524 124.77H396.328C403.73 124.77 409.731 118.769 409.731 111.367V84.5626C409.731 77.1606 403.73 71.1602 396.328 71.1602Z" fill="#DDFE55"/>
<path opacity="0.082" d="M453.77 71.1602H426.965C419.563 71.1602 413.562 77.1606 413.562 84.5626V111.367C413.562 118.769 419.563 124.77 426.965 124.77H453.77C461.172 124.77 467.172 118.769 467.172 111.367V84.5626C467.172 77.1606 461.172 71.1602 453.77 71.1602Z" fill="#DDFE55"/>
<path opacity="0.206" d="M511.207 71.1602H484.402C477 71.1602 471 77.1606 471 84.5626V111.367C471 118.769 477 124.77 484.402 124.77H511.207C518.609 124.77 524.61 118.769 524.61 111.367V84.5626C524.61 77.1606 518.609 71.1602 511.207 71.1602Z" fill="#DDFE55"/>
<path opacity="0.114" d="M109.133 128.598H82.3282C74.9263 128.598 68.9258 134.598 68.9258 142V168.805C68.9258 176.207 74.9263 182.207 82.3282 182.207H109.133C116.535 182.207 122.536 176.207 122.536 168.805V142C122.536 134.598 116.535 128.598 109.133 128.598Z" fill="#DDFE55"/>
<path opacity="0.213" d="M166.575 128.598H139.77C132.368 128.598 126.367 134.598 126.367 142V168.805C126.367 176.207 132.368 182.207 139.77 182.207H166.575C173.976 182.207 179.977 176.207 179.977 168.805V142C179.977 134.598 173.976 128.598 166.575 128.598Z" fill="#DDFE55"/>
<path opacity="0.054" d="M224.012 128.598H197.207C189.805 128.598 183.805 134.598 183.805 142V168.805C183.805 176.207 189.805 182.207 197.207 182.207H224.012C231.414 182.207 237.414 176.207 237.414 168.805V142C237.414 134.598 231.414 128.598 224.012 128.598Z" fill="#DDFE55"/>
<path opacity="0.249" d="M281.453 128.598H254.649C247.247 128.598 241.246 134.598 241.246 142V168.805C241.246 176.207 247.247 182.207 254.649 182.207H281.453C288.855 182.207 294.856 176.207 294.856 168.805V142C294.856 134.598 288.855 128.598 281.453 128.598Z" fill="#DDFE55"/>
<path opacity="0.236" d="M338.891 128.598H312.086C304.684 128.598 298.684 134.598 298.684 142V168.805C298.684 176.207 304.684 182.207 312.086 182.207H338.891C346.293 182.207 352.293 176.207 352.293 168.805V142C352.293 134.598 346.293 128.598 338.891 128.598Z" fill="#DDFE55"/>
<path opacity="0.272" d="M396.328 128.598H369.524C362.122 128.598 356.121 134.598 356.121 142V168.805C356.121 176.207 362.122 182.207 369.524 182.207H396.328C403.73 182.207 409.731 176.207 409.731 168.805V142C409.731 134.598 403.73 128.598 396.328 128.598Z" fill="#DDFE55"/>
<path opacity="0.119" d="M453.77 128.598H426.965C419.563 128.598 413.562 134.598 413.562 142V168.805C413.562 176.207 419.563 182.207 426.965 182.207H453.77C461.172 182.207 467.172 176.207 467.172 168.805V142C467.172 134.598 461.172 128.598 453.77 128.598Z" fill="#DDFE55"/>
<path opacity="0.142" d="M511.207 128.598H484.402C477 128.598 471 134.598 471 142V168.805C471 176.207 477 182.207 484.402 182.207H511.207C518.609 182.207 524.61 176.207 524.61 168.805V142C524.61 134.598 518.609 128.598 511.207 128.598Z" fill="#DDFE55"/>
<path opacity="0.15" d="M568.649 128.598H541.844C534.442 128.598 528.441 134.598 528.441 142V168.805C528.441 176.207 534.442 182.207 541.844 182.207H568.649C576.051 182.207 582.051 176.207 582.051 168.805V142C582.051 134.598 576.051 128.598 568.649 128.598Z" fill="#DDFE55"/>
<path opacity="0.163" d="M109.133 186.039H82.3282C74.9263 186.039 68.9258 192.04 68.9258 199.442V226.246C68.9258 233.648 74.9263 239.649 82.3282 239.649H109.133C116.535 239.649 122.536 233.648 122.536 226.246V199.442C122.536 192.04 116.535 186.039 109.133 186.039Z" fill="#DDFE55"/>
<path opacity="0.272" d="M166.575 186.039H139.77C132.368 186.039 126.367 192.04 126.367 199.442V226.246C126.367 233.648 132.368 239.649 139.77 239.649H166.575C173.976 239.649 179.977 233.648 179.977 226.246V199.442C179.977 192.04 173.976 186.039 166.575 186.039Z" fill="#DDFE55"/>
<path opacity="0.188" d="M511.207 186.039H484.402C477 186.039 471 192.04 471 199.442V226.246C471 233.648 477 239.649 484.402 239.649H511.207C518.609 239.649 524.61 233.648 524.61 226.246V199.442C524.61 192.04 518.609 186.039 511.207 186.039Z" fill="#DDFE55"/>
<path opacity="0.135" d="M626.086 186.039H599.281C591.879 186.039 585.879 192.04 585.879 199.442V226.246C585.879 233.648 591.879 239.649 599.281 239.649H626.086C633.488 239.649 639.489 233.648 639.489 226.246V199.442C639.489 192.04 633.488 186.039 626.086 186.039Z" fill="#DDFE55"/>
<path opacity="0.265" d="M51.6956 243.477H24.8907C17.4888 243.477 11.4883 249.477 11.4883 256.879V283.684C11.4883 291.086 17.4888 297.086 24.8907 297.086H51.6956C59.0976 297.086 65.098 291.086 65.098 283.684V256.879C65.098 249.477 59.0976 243.477 51.6956 243.477Z" fill="#DDFE55"/>
<path opacity="0.113" d="M109.133 243.477H82.3282C74.9263 243.477 68.9258 249.477 68.9258 256.879V283.684C68.9258 291.086 74.9263 297.086 82.3282 297.086H109.133C116.535 297.086 122.536 291.086 122.536 283.684V256.879C122.536 249.477 116.535 243.477 109.133 243.477Z" fill="#DDFE55"/>
<path opacity="0.247" d="M166.575 243.477H139.77C132.368 243.477 126.367 249.477 126.367 256.879V283.684C126.367 291.086 132.368 297.086 139.77 297.086H166.575C173.976 297.086 179.977 291.086 179.977 283.684V256.879C179.977 249.477 173.976 243.477 166.575 243.477Z" fill="#DDFE55"/>
<path opacity="0.259" d="M511.207 243.477H484.402C477 243.477 471 249.477 471 256.879V283.684C471 291.086 477 297.086 484.402 297.086H511.207C518.609 297.086 524.61 291.086 524.61 283.684V256.879C524.61 249.477 518.609 243.477 511.207 243.477Z" fill="#DDFE55"/>
<path opacity="0.226" d="M568.649 243.477H541.844C534.442 243.477 528.441 249.477 528.441 256.879V283.684C528.441 291.086 534.442 297.086 541.844 297.086H568.649C576.051 297.086 582.051 291.086 582.051 283.684V256.879C582.051 249.477 576.051 243.477 568.649 243.477Z" fill="#DDFE55"/>
<path opacity="0.244" d="M626.086 243.477H599.281C591.879 243.477 585.879 249.477 585.879 256.879V283.684C585.879 291.086 591.879 297.086 599.281 297.086H626.086C633.488 297.086 639.489 291.086 639.489 283.684V256.879C639.489 249.477 633.488 243.477 626.086 243.477Z" fill="#DDFE55"/>
<path opacity="0.103" d="M109.133 300.914H82.3282C74.9263 300.914 68.9258 306.915 68.9258 314.317V341.121C68.9258 348.523 74.9263 354.524 82.3282 354.524H109.133C116.535 354.524 122.536 348.523 122.536 341.121V314.317C122.536 306.915 116.535 300.914 109.133 300.914Z" fill="#DDFE55"/>
<path opacity="0.053" d="M166.575 300.914H139.77C132.368 300.914 126.367 306.915 126.367 314.317V341.121C126.367 348.523 132.368 354.524 139.77 354.524H166.575C173.976 354.524 179.977 348.523 179.977 341.121V314.317C179.977 306.915 173.976 300.914 166.575 300.914Z" fill="#DDFE55"/>
<path opacity="0.285" d="M511.207 300.914H484.402C477 300.914 471 306.915 471 314.317V341.121C471 348.523 477 354.524 484.402 354.524H511.207C518.609 354.524 524.61 348.523 524.61 341.121V314.317C524.61 306.915 518.609 300.914 511.207 300.914Z" fill="#DDFE55"/>
<path opacity="0.096" d="M568.649 300.914H541.844C534.442 300.914 528.441 306.915 528.441 314.317V341.121C528.441 348.523 534.442 354.524 541.844 354.524H568.649C576.051 354.524 582.051 348.523 582.051 341.121V314.317C582.051 306.915 576.051 300.914 568.649 300.914Z" fill="#DDFE55"/>
<path opacity="0.145" d="M109.133 358.355H82.3282C74.9263 358.355 68.9258 364.356 68.9258 371.758V398.563C68.9258 405.965 74.9263 411.965 82.3282 411.965H109.133C116.535 411.965 122.536 405.965 122.536 398.563V371.758C122.536 364.356 116.535 358.355 109.133 358.355Z" fill="#DDFE55"/>
<path opacity="0.285" d="M166.575 358.355H139.77C132.368 358.355 126.367 364.356 126.367 371.758V398.563C126.367 405.965 132.368 411.965 139.77 411.965H166.575C173.976 411.965 179.977 405.965 179.977 398.563V371.758C179.977 364.356 173.976 358.355 166.575 358.355Z" fill="#DDFE55"/>
<path opacity="0.293" d="M224.012 358.355H197.207C189.805 358.355 183.805 364.356 183.805 371.758V398.563C183.805 405.965 189.805 411.965 197.207 411.965H224.012C231.414 411.965 237.414 405.965 237.414 398.563V371.758C237.414 364.356 231.414 358.355 224.012 358.355Z" fill="#DDFE55"/>
<path opacity="0.289" d="M453.77 358.355H426.965C419.563 358.355 413.562 364.356 413.562 371.758V398.563C413.562 405.965 419.563 411.965 426.965 411.965H453.77C461.172 411.965 467.172 405.965 467.172 398.563V371.758C467.172 364.356 461.172 358.355 453.77 358.355Z" fill="#DDFE55"/>
<path opacity="0.192" d="M511.207 358.355H484.402C477 358.355 471 364.356 471 371.758V398.563C471 405.965 477 411.965 484.402 411.965H511.207C518.609 411.965 524.61 405.965 524.61 398.563V371.758C524.61 364.356 518.609 358.355 511.207 358.355Z" fill="#DDFE55"/>
<path opacity="0.206" d="M109.133 415.793H82.3282C74.9263 415.793 68.9258 421.793 68.9258 429.195V456C68.9258 463.402 74.9263 469.403 82.3282 469.403H109.133C116.535 469.403 122.536 463.402 122.536 456V429.195C122.536 421.793 116.535 415.793 109.133 415.793Z" fill="#DDFE55"/>
<path opacity="0.052" d="M166.575 415.793H139.77C132.368 415.793 126.367 421.793 126.367 429.195V456C126.367 463.402 132.368 469.403 139.77 469.403H166.575C173.976 469.403 179.977 463.402 179.977 456V429.195C179.977 421.793 173.976 415.793 166.575 415.793Z" fill="#DDFE55"/>
<path opacity="0.164" d="M224.012 415.793H197.207C189.805 415.793 183.805 421.793 183.805 429.195V456C183.805 463.402 189.805 469.403 197.207 469.403H224.012C231.414 469.403 237.414 463.402 237.414 456V429.195C237.414 421.793 231.414 415.793 224.012 415.793Z" fill="#DDFE55"/>
<path opacity="0.26" d="M281.453 415.793H254.649C247.247 415.793 241.246 421.793 241.246 429.195V456C241.246 463.402 247.247 469.403 254.649 469.403H281.453C288.855 469.403 294.856 463.402 294.856 456V429.195C294.856 421.793 288.855 415.793 281.453 415.793Z" fill="#DDFE55"/>
<path opacity="0.062" d="M396.328 415.793H369.524C362.122 415.793 356.121 421.793 356.121 429.195V456C356.121 463.402 362.122 469.403 369.524 469.403H396.328C403.73 469.403 409.731 463.402 409.731 456V429.195C409.731 421.793 403.73 415.793 396.328 415.793Z" fill="#DDFE55"/>
<path opacity="0.21" d="M453.77 415.793H426.965C419.563 415.793 413.562 421.793 413.562 429.195V456C413.562 463.402 419.563 469.403 426.965 469.403H453.77C461.172 469.403 467.172 463.402 467.172 456V429.195C467.172 421.793 461.172 415.793 453.77 415.793Z" fill="#DDFE55"/>
<path opacity="0.261" d="M281.453 473.234H254.649C247.247 473.234 241.246 479.235 241.246 486.637V513.442C241.246 520.844 247.247 526.844 254.649 526.844H281.453C288.855 526.844 294.856 520.844 294.856 513.442V486.637C294.856 479.235 288.855 473.234 281.453 473.234Z" fill="#DDFE55"/>
<path opacity="0.17" d="M338.891 473.234H312.086C304.684 473.234 298.684 479.235 298.684 486.637V513.442C298.684 520.844 304.684 526.844 312.086 526.844H338.891C346.293 526.844 352.293 520.844 352.293 513.442V486.637C352.293 479.235 346.293 473.234 338.891 473.234Z" fill="#DDFE55"/>
<path opacity="0.107" d="M396.328 473.234H369.524C362.122 473.234 356.121 479.235 356.121 486.637V513.442C356.121 520.844 362.122 526.844 369.524 526.844H396.328C403.73 526.844 409.731 520.844 409.731 513.442V486.637C409.731 479.235 403.73 473.234 396.328 473.234Z" fill="#DDFE55"/>
<path opacity="0.082" d="M453.77 473.234H426.965C419.563 473.234 413.562 479.235 413.562 486.637V513.442C413.562 520.844 419.563 526.844 426.965 526.844H453.77C461.172 526.844 467.172 520.844 467.172 513.442V486.637C467.172 479.235 461.172 473.234 453.77 473.234Z" fill="#DDFE55"/>
<path opacity="0.19" d="M281.453 530.672H254.649C247.247 530.672 241.246 536.672 241.246 544.074V570.879C241.246 578.281 247.247 584.282 254.649 584.282H281.453C288.855 584.282 294.856 578.281 294.856 570.879V544.074C294.856 536.672 288.855 530.672 281.453 530.672Z" fill="#DDFE55"/>
<g opacity="0.861" filter="url(#filter0_f_1009_690)">
<path d="M224.012 186.039H197.207C189.805 186.039 183.805 192.04 183.805 199.442V226.246C183.805 233.648 189.805 239.649 197.207 239.649H224.012C231.414 239.649 237.414 233.648 237.414 226.246V199.442C237.414 192.04 231.414 186.039 224.012 186.039Z" fill="#DDFE55"/>
</g>
<g opacity="0.861" filter="url(#filter1_f_1009_690)">
<path d="M224.012 186.039H197.207C189.805 186.039 183.805 192.04 183.805 199.442V226.246C183.805 233.648 189.805 239.649 197.207 239.649H224.012C231.414 239.649 237.414 233.648 237.414 226.246V199.442C237.414 192.04 231.414 186.039 224.012 186.039Z" fill="#DDFE55"/>
</g>
<g opacity="0.861" filter="url(#filter2_f_1009_690)">
<path d="M224.012 186.039H197.207C189.805 186.039 183.805 192.04 183.805 199.442V226.246C183.805 233.648 189.805 239.649 197.207 239.649H224.012C231.414 239.649 237.414 233.648 237.414 226.246V199.442C237.414 192.04 231.414 186.039 224.012 186.039Z" fill="#DDFE55"/>
</g>
<g opacity="0.276" filter="url(#filter3_f_1009_690)">
<path d="M224.012 186.039H197.207C189.805 186.039 183.805 192.04 183.805 199.442V226.246C183.805 233.648 189.805 239.649 197.207 239.649H224.012C231.414 239.649 237.414 233.648 237.414 226.246V199.442C237.414 192.04 231.414 186.039 224.012 186.039Z" fill="white"/>
</g>
<path d="M224.012 186.039H197.207C189.805 186.039 183.805 192.04 183.805 199.442V226.246C183.805 233.648 189.805 239.649 197.207 239.649H224.012C231.414 239.649 237.414 233.648 237.414 226.246V199.442C237.414 192.04 231.414 186.039 224.012 186.039Z" fill="#F7FFD8"/>
<g opacity="0.833" filter="url(#filter4_f_1009_690)">
<path d="M281.453 186.039H254.649C247.247 186.039 241.246 192.04 241.246 199.442V226.246C241.246 233.648 247.247 239.649 254.649 239.649H281.453C288.855 239.649 294.856 233.648 294.856 226.246V199.442C294.856 192.04 288.855 186.039 281.453 186.039Z" fill="#DDFE55"/>
</g>
<g opacity="0.833" filter="url(#filter5_f_1009_690)">
<path d="M281.453 186.039H254.649C247.247 186.039 241.246 192.04 241.246 199.442V226.246C241.246 233.648 247.247 239.649 254.649 239.649H281.453C288.855 239.649 294.856 233.648 294.856 226.246V199.442C294.856 192.04 288.855 186.039 281.453 186.039Z" fill="#DDFE55"/>
</g>
<g opacity="0.833" filter="url(#filter6_f_1009_690)">
<path d="M281.453 186.039H254.649C247.247 186.039 241.246 192.04 241.246 199.442V226.246C241.246 233.648 247.247 239.649 254.649 239.649H281.453C288.855 239.649 294.856 233.648 294.856 226.246V199.442C294.856 192.04 288.855 186.039 281.453 186.039Z" fill="#DDFE55"/>
</g>
<g opacity="0.267" filter="url(#filter7_f_1009_690)">
<path d="M281.453 186.039H254.649C247.247 186.039 241.246 192.04 241.246 199.442V226.246C241.246 233.648 247.247 239.649 254.649 239.649H281.453C288.855 239.649 294.856 233.648 294.856 226.246V199.442C294.856 192.04 288.855 186.039 281.453 186.039Z" fill="white"/>
</g>
<path d="M281.453 186.039H254.649C247.247 186.039 241.246 192.04 241.246 199.442V226.246C241.246 233.648 247.247 239.649 254.649 239.649H281.453C288.855 239.649 294.856 233.648 294.856 226.246V199.442C294.856 192.04 288.855 186.039 281.453 186.039Z" fill="#F7FFD5"/>
<g opacity="0.756" filter="url(#filter8_f_1009_690)">
<path d="M338.891 186.039H312.086C304.684 186.039 298.684 192.04 298.684 199.442V226.246C298.684 233.648 304.684 239.649 312.086 239.649H338.891C346.293 239.649 352.293 233.648 352.293 226.246V199.442C352.293 192.04 346.293 186.039 338.891 186.039Z" fill="#DDFE55"/>
</g>
<g opacity="0.756" filter="url(#filter9_f_1009_690)">
<path d="M338.891 186.039H312.086C304.684 186.039 298.684 192.04 298.684 199.442V226.246C298.684 233.648 304.684 239.649 312.086 239.649H338.891C346.293 239.649 352.293 233.648 352.293 226.246V199.442C352.293 192.04 346.293 186.039 338.891 186.039Z" fill="#DDFE55"/>
</g>
<g opacity="0.756" filter="url(#filter10_f_1009_690)">
<path d="M338.891 186.039H312.086C304.684 186.039 298.684 192.04 298.684 199.442V226.246C298.684 233.648 304.684 239.649 312.086 239.649H338.891C346.293 239.649 352.293 233.648 352.293 226.246V199.442C352.293 192.04 346.293 186.039 338.891 186.039Z" fill="#DDFE55"/>
</g>
<g opacity="0.242" filter="url(#filter11_f_1009_690)">
<path d="M338.891 186.039H312.086C304.684 186.039 298.684 192.04 298.684 199.442V226.246C298.684 233.648 304.684 239.649 312.086 239.649H338.891C346.293 239.649 352.293 233.648 352.293 226.246V199.442C352.293 192.04 346.293 186.039 338.891 186.039Z" fill="white"/>
</g>
<path d="M338.891 186.039H312.086C304.684 186.039 298.684 192.04 298.684 199.442V226.246C298.684 233.648 304.684 239.649 312.086 239.649H338.891C346.293 239.649 352.293 233.648 352.293 226.246V199.442C352.293 192.04 346.293 186.039 338.891 186.039Z" fill="#F5FFCD"/>
<g opacity="0.811" filter="url(#filter12_f_1009_690)">
<path d="M396.328 186.039H369.524C362.122 186.039 356.121 192.04 356.121 199.442V226.246C356.121 233.648 362.122 239.649 369.524 239.649H396.328C403.73 239.649 409.731 233.648 409.731 226.246V199.442C409.731 192.04 403.73 186.039 396.328 186.039Z" fill="#DDFE55"/>
</g>
<g opacity="0.811" filter="url(#filter13_f_1009_690)">
<path d="M396.328 186.039H369.524C362.122 186.039 356.121 192.04 356.121 199.442V226.246C356.121 233.648 362.122 239.649 369.524 239.649H396.328C403.73 239.649 409.731 233.648 409.731 226.246V199.442C409.731 192.04 403.73 186.039 396.328 186.039Z" fill="#DDFE55"/>
</g>
<g opacity="0.811" filter="url(#filter14_f_1009_690)">
<path d="M396.328 186.039H369.524C362.122 186.039 356.121 192.04 356.121 199.442V226.246C356.121 233.648 362.122 239.649 369.524 239.649H396.328C403.73 239.649 409.731 233.648 409.731 226.246V199.442C409.731 192.04 403.73 186.039 396.328 186.039Z" fill="#DDFE55"/>
</g>
<g opacity="0.26" filter="url(#filter15_f_1009_690)">
<path d="M396.328 186.039H369.524C362.122 186.039 356.121 192.04 356.121 199.442V226.246C356.121 233.648 362.122 239.649 369.524 239.649H396.328C403.73 239.649 409.731 233.648 409.731 226.246V199.442C409.731 192.04 403.73 186.039 396.328 186.039Z" fill="white"/>
</g>
<path d="M396.328 186.039H369.524C362.122 186.039 356.121 192.04 356.121 199.442V226.246C356.121 233.648 362.122 239.649 369.524 239.649H396.328C403.73 239.649 409.731 233.648 409.731 226.246V199.442C409.731 192.04 403.73 186.039 396.328 186.039Z" fill="#F6FFD2"/>
<g opacity="0.975" filter="url(#filter16_f_1009_690)">
<path d="M453.77 186.039H426.965C419.563 186.039 413.562 192.04 413.562 199.442V226.246C413.562 233.648 419.563 239.649 426.965 239.649H453.77C461.172 239.649 467.172 233.648 467.172 226.246V199.442C467.172 192.04 461.172 186.039 453.77 186.039Z" fill="#DDFE55"/>
</g>
<g opacity="0.975" filter="url(#filter17_f_1009_690)">
<path d="M453.77 186.039H426.965C419.563 186.039 413.562 192.04 413.562 199.442V226.246C413.562 233.648 419.563 239.649 426.965 239.649H453.77C461.172 239.649 467.172 233.648 467.172 226.246V199.442C467.172 192.04 461.172 186.039 453.77 186.039Z" fill="#DDFE55"/>
</g>
<g opacity="0.975" filter="url(#filter18_f_1009_690)">
<path d="M453.77 186.039H426.965C419.563 186.039 413.562 192.04 413.562 199.442V226.246C413.562 233.648 419.563 239.649 426.965 239.649H453.77C461.172 239.649 467.172 233.648 467.172 226.246V199.442C467.172 192.04 461.172 186.039 453.77 186.039Z" fill="#DDFE55"/>
</g>
<g opacity="0.312" filter="url(#filter19_f_1009_690)">
<path d="M453.77 186.039H426.965C419.563 186.039 413.562 192.04 413.562 199.442V226.246C413.562 233.648 419.563 239.649 426.965 239.649H453.77C461.172 239.649 467.172 233.648 467.172 226.246V199.442C467.172 192.04 461.172 186.039 453.77 186.039Z" fill="white"/>
</g>
<path d="M453.77 186.039H426.965C419.563 186.039 413.562 192.04 413.562 199.442V226.246C413.562 233.648 419.563 239.649 426.965 239.649H453.77C461.172 239.649 467.172 233.648 467.172 226.246V199.442C467.172 192.04 461.172 186.039 453.77 186.039Z" fill="#F9FFE3"/>
<g opacity="0.839" filter="url(#filter20_f_1009_690)">
<path d="M224.012 243.477H197.207C189.805 243.477 183.805 249.477 183.805 256.879V283.684C183.805 291.086 189.805 297.086 197.207 297.086H224.012C231.414 297.086 237.414 291.086 237.414 283.684V256.879C237.414 249.477 231.414 243.477 224.012 243.477Z" fill="#DDFE55"/>
</g>
<g opacity="0.839" filter="url(#filter21_f_1009_690)">
<path d="M224.012 243.477H197.207C189.805 243.477 183.805 249.477 183.805 256.879V283.684C183.805 291.086 189.805 297.086 197.207 297.086H224.012C231.414 297.086 237.414 291.086 237.414 283.684V256.879C237.414 249.477 231.414 243.477 224.012 243.477Z" fill="#DDFE55"/>
</g>
<g opacity="0.839" filter="url(#filter22_f_1009_690)">
<path d="M224.012 243.477H197.207C189.805 243.477 183.805 249.477 183.805 256.879V283.684C183.805 291.086 189.805 297.086 197.207 297.086H224.012C231.414 297.086 237.414 291.086 237.414 283.684V256.879C237.414 249.477 231.414 243.477 224.012 243.477Z" fill="#DDFE55"/>
</g>
<g opacity="0.268" filter="url(#filter23_f_1009_690)">
<path d="M224.012 243.477H197.207C189.805 243.477 183.805 249.477 183.805 256.879V283.684C183.805 291.086 189.805 297.086 197.207 297.086H224.012C231.414 297.086 237.414 291.086 237.414 283.684V256.879C237.414 249.477 231.414 243.477 224.012 243.477Z" fill="white"/>
</g>
<path d="M224.012 243.477H197.207C189.805 243.477 183.805 249.477 183.805 256.879V283.684C183.805 291.086 189.805 297.086 197.207 297.086H224.012C231.414 297.086 237.414 291.086 237.414 283.684V256.879C237.414 249.477 231.414 243.477 224.012 243.477Z" fill="#F7FFD5"/>
<g opacity="0.718" filter="url(#filter24_f_1009_690)">
<path d="M281.453 243.477H254.649C247.247 243.477 241.246 249.477 241.246 256.879V283.684C241.246 291.086 247.247 297.086 254.649 297.086H281.453C288.855 297.086 294.856 291.086 294.856 283.684V256.879C294.856 249.477 288.855 243.477 281.453 243.477Z" fill="#DDFE55"/>
</g>
<g opacity="0.718" filter="url(#filter25_f_1009_690)">
<path d="M281.453 243.477H254.649C247.247 243.477 241.246 249.477 241.246 256.879V283.684C241.246 291.086 247.247 297.086 254.649 297.086H281.453C288.855 297.086 294.856 291.086 294.856 283.684V256.879C294.856 249.477 288.855 243.477 281.453 243.477Z" fill="#DDFE55"/>
</g>
<g opacity="0.718" filter="url(#filter26_f_1009_690)">
<path d="M281.453 243.477H254.649C247.247 243.477 241.246 249.477 241.246 256.879V283.684C241.246 291.086 247.247 297.086 254.649 297.086H281.453C288.855 297.086 294.856 291.086 294.856 283.684V256.879C294.856 249.477 288.855 243.477 281.453 243.477Z" fill="#DDFE55"/>
</g>
<g opacity="0.23" filter="url(#filter27_f_1009_690)">
<path d="M281.453 243.477H254.649C247.247 243.477 241.246 249.477 241.246 256.879V283.684C241.246 291.086 247.247 297.086 254.649 297.086H281.453C288.855 297.086 294.856 291.086 294.856 283.684V256.879C294.856 249.477 288.855 243.477 281.453 243.477Z" fill="white"/>
</g>
<path d="M281.453 243.477H254.649C247.247 243.477 241.246 249.477 241.246 256.879V283.684C241.246 291.086 247.247 297.086 254.649 297.086H281.453C288.855 297.086 294.856 291.086 294.856 283.684V256.879C294.856 249.477 288.855 243.477 281.453 243.477Z" fill="#F4FFC9"/>
<g opacity="0.816" filter="url(#filter28_f_1009_690)">
<path d="M338.891 243.477H312.086C304.684 243.477 298.684 249.477 298.684 256.879V283.684C298.684 291.086 304.684 297.086 312.086 297.086H338.891C346.293 297.086 352.293 291.086 352.293 283.684V256.879C352.293 249.477 346.293 243.477 338.891 243.477Z" fill="#DDFE55"/>
</g>
<g opacity="0.816" filter="url(#filter29_f_1009_690)">
<path d="M338.891 243.477H312.086C304.684 243.477 298.684 249.477 298.684 256.879V283.684C298.684 291.086 304.684 297.086 312.086 297.086H338.891C346.293 297.086 352.293 291.086 352.293 283.684V256.879C352.293 249.477 346.293 243.477 338.891 243.477Z" fill="#DDFE55"/>
</g>
<g opacity="0.816" filter="url(#filter30_f_1009_690)">
<path d="M338.891 243.477H312.086C304.684 243.477 298.684 249.477 298.684 256.879V283.684C298.684 291.086 304.684 297.086 312.086 297.086H338.891C346.293 297.086 352.293 291.086 352.293 283.684V256.879C352.293 249.477 346.293 243.477 338.891 243.477Z" fill="#DDFE55"/>
</g>
<g opacity="0.261" filter="url(#filter31_f_1009_690)">
<path d="M338.891 243.477H312.086C304.684 243.477 298.684 249.477 298.684 256.879V283.684C298.684 291.086 304.684 297.086 312.086 297.086H338.891C346.293 297.086 352.293 291.086 352.293 283.684V256.879C352.293 249.477 346.293 243.477 338.891 243.477Z" fill="white"/>
</g>
<path d="M338.891 243.477H312.086C304.684 243.477 298.684 249.477 298.684 256.879V283.684C298.684 291.086 304.684 297.086 312.086 297.086H338.891C346.293 297.086 352.293 291.086 352.293 283.684V256.879C352.293 249.477 346.293 243.477 338.891 243.477Z" fill="#F6FFD3"/>
<g opacity="0.954" filter="url(#filter32_f_1009_690)">
<path d="M396.328 243.477H369.524C362.122 243.477 356.121 249.477 356.121 256.879V283.684C356.121 291.086 362.122 297.086 369.524 297.086H396.328C403.73 297.086 409.731 291.086 409.731 283.684V256.879C409.731 249.477 403.73 243.477 396.328 243.477Z" fill="#DDFE55"/>
</g>
<g opacity="0.954" filter="url(#filter33_f_1009_690)">
<path d="M396.328 243.477H369.524C362.122 243.477 356.121 249.477 356.121 256.879V283.684C356.121 291.086 362.122 297.086 369.524 297.086H396.328C403.73 297.086 409.731 291.086 409.731 283.684V256.879C409.731 249.477 403.73 243.477 396.328 243.477Z" fill="#DDFE55"/>
</g>
<g opacity="0.954" filter="url(#filter34_f_1009_690)">
<path d="M396.328 243.477H369.524C362.122 243.477 356.121 249.477 356.121 256.879V283.684C356.121 291.086 362.122 297.086 369.524 297.086H396.328C403.73 297.086 409.731 291.086 409.731 283.684V256.879C409.731 249.477 403.73 243.477 396.328 243.477Z" fill="#DDFE55"/>
</g>
<g opacity="0.305" filter="url(#filter35_f_1009_690)">
<path d="M396.328 243.477H369.524C362.122 243.477 356.121 249.477 356.121 256.879V283.684C356.121 291.086 362.122 297.086 369.524 297.086H396.328C403.73 297.086 409.731 291.086 409.731 283.684V256.879C409.731 249.477 403.73 243.477 396.328 243.477Z" fill="white"/>
</g>
<path d="M396.328 243.477H369.524C362.122 243.477 356.121 249.477 356.121 256.879V283.684C356.121 291.086 362.122 297.086 369.524 297.086H396.328C403.73 297.086 409.731 291.086 409.731 283.684V256.879C409.731 249.477 403.73 243.477 396.328 243.477Z" fill="#F9FFE1"/>
<g opacity="0.754" filter="url(#filter36_f_1009_690)">
<path d="M453.77 243.477H426.965C419.563 243.477 413.562 249.477 413.562 256.879V283.684C413.562 291.086 419.563 297.086 426.965 297.086H453.77C461.172 297.086 467.172 291.086 467.172 283.684V256.879C467.172 249.477 461.172 243.477 453.77 243.477Z" fill="#DDFE55"/>
</g>
<g opacity="0.754" filter="url(#filter37_f_1009_690)">
<path d="M453.77 243.477H426.965C419.563 243.477 413.562 249.477 413.562 256.879V283.684C413.562 291.086 419.563 297.086 426.965 297.086H453.77C461.172 297.086 467.172 291.086 467.172 283.684V256.879C467.172 249.477 461.172 243.477 453.77 243.477Z" fill="#DDFE55"/>
</g>
<g opacity="0.754" filter="url(#filter38_f_1009_690)">
<path d="M453.77 243.477H426.965C419.563 243.477 413.562 249.477 413.562 256.879V283.684C413.562 291.086 419.563 297.086 426.965 297.086H453.77C461.172 297.086 467.172 291.086 467.172 283.684V256.879C467.172 249.477 461.172 243.477 453.77 243.477Z" fill="#DDFE55"/>
</g>
<g opacity="0.241" filter="url(#filter39_f_1009_690)">
<path d="M453.77 243.477H426.965C419.563 243.477 413.562 249.477 413.562 256.879V283.684C413.562 291.086 419.563 297.086 426.965 297.086H453.77C461.172 297.086 467.172 291.086 467.172 283.684V256.879C467.172 249.477 461.172 243.477 453.77 243.477Z" fill="white"/>
</g>
<path d="M453.77 243.477H426.965C419.563 243.477 413.562 249.477 413.562 256.879V283.684C413.562 291.086 419.563 297.086 426.965 297.086H453.77C461.172 297.086 467.172 291.086 467.172 283.684V256.879C467.172 249.477 461.172 243.477 453.77 243.477Z" fill="#F5FFCD"/>
<g opacity="0.94" filter="url(#filter40_f_1009_690)">
<path d="M224.012 300.914H197.207C189.805 300.914 183.805 306.915 183.805 314.317V341.121C183.805 348.523 189.805 354.524 197.207 354.524H224.012C231.414 354.524 237.414 348.523 237.414 341.121V314.317C237.414 306.915 231.414 300.914 224.012 300.914Z" fill="#DDFE55"/>
</g>
<g opacity="0.94" filter="url(#filter41_f_1009_690)">
<path d="M224.012 300.914H197.207C189.805 300.914 183.805 306.915 183.805 314.317V341.121C183.805 348.523 189.805 354.524 197.207 354.524H224.012C231.414 354.524 237.414 348.523 237.414 341.121V314.317C237.414 306.915 231.414 300.914 224.012 300.914Z" fill="#DDFE55"/>
</g>
<g opacity="0.94" filter="url(#filter42_f_1009_690)">
<path d="M224.012 300.914H197.207C189.805 300.914 183.805 306.915 183.805 314.317V341.121C183.805 348.523 189.805 354.524 197.207 354.524H224.012C231.414 354.524 237.414 348.523 237.414 341.121V314.317C237.414 306.915 231.414 300.914 224.012 300.914Z" fill="#DDFE55"/>
</g>
<g opacity="0.301" filter="url(#filter43_f_1009_690)">
<path d="M224.012 300.914H197.207C189.805 300.914 183.805 306.915 183.805 314.317V341.121C183.805 348.523 189.805 354.524 197.207 354.524H224.012C231.414 354.524 237.414 348.523 237.414 341.121V314.317C237.414 306.915 231.414 300.914 224.012 300.914Z" fill="white"/>
</g>
<path d="M224.012 300.914H197.207C189.805 300.914 183.805 306.915 183.805 314.317V341.121C183.805 348.523 189.805 354.524 197.207 354.524H224.012C231.414 354.524 237.414 348.523 237.414 341.121V314.317C237.414 306.915 231.414 300.914 224.012 300.914Z" fill="#F9FFE0"/>
<g opacity="0.991" filter="url(#filter44_f_1009_690)">
<path d="M281.453 300.914H254.649C247.247 300.914 241.246 306.915 241.246 314.317V341.121C241.246 348.523 247.247 354.524 254.649 354.524H281.453C288.855 354.524 294.856 348.523 294.856 341.121V314.317C294.856 306.915 288.855 300.914 281.453 300.914Z" fill="#DDFE55"/>
</g>
<g opacity="0.991" filter="url(#filter45_f_1009_690)">
<path d="M281.453 300.914H254.649C247.247 300.914 241.246 306.915 241.246 314.317V341.121C241.246 348.523 247.247 354.524 254.649 354.524H281.453C288.855 354.524 294.856 348.523 294.856 341.121V314.317C294.856 306.915 288.855 300.914 281.453 300.914Z" fill="#DDFE55"/>
</g>
<g opacity="0.991" filter="url(#filter46_f_1009_690)">
<path d="M281.453 300.914H254.649C247.247 300.914 241.246 306.915 241.246 314.317V341.121C241.246 348.523 247.247 354.524 254.649 354.524H281.453C288.855 354.524 294.856 348.523 294.856 341.121V314.317C294.856 306.915 288.855 300.914 281.453 300.914Z" fill="#DDFE55"/>
</g>
<g opacity="0.317" filter="url(#filter47_f_1009_690)">
<path d="M281.453 300.914H254.649C247.247 300.914 241.246 306.915 241.246 314.317V341.121C241.246 348.523 247.247 354.524 254.649 354.524H281.453C288.855 354.524 294.856 348.523 294.856 341.121V314.317C294.856 306.915 288.855 300.914 281.453 300.914Z" fill="white"/>
</g>
<path d="M281.453 300.914H254.649C247.247 300.914 241.246 306.915 241.246 314.317V341.121C241.246 348.523 247.247 354.524 254.649 354.524H281.453C288.855 354.524 294.856 348.523 294.856 341.121V314.317C294.856 306.915 288.855 300.914 281.453 300.914Z" fill="#FAFFE5"/>
<g opacity="0.933" filter="url(#filter48_f_1009_690)">
<path d="M338.891 300.914H312.086C304.684 300.914 298.684 306.915 298.684 314.317V341.121C298.684 348.523 304.684 354.524 312.086 354.524H338.891C346.293 354.524 352.293 348.523 352.293 341.121V314.317C352.293 306.915 346.293 300.914 338.891 300.914Z" fill="#DDFE55"/>
</g>
<g opacity="0.933" filter="url(#filter49_f_1009_690)">
<path d="M338.891 300.914H312.086C304.684 300.914 298.684 306.915 298.684 314.317V341.121C298.684 348.523 304.684 354.524 312.086 354.524H338.891C346.293 354.524 352.293 348.523 352.293 341.121V314.317C352.293 306.915 346.293 300.914 338.891 300.914Z" fill="#DDFE55"/>
</g>
<g opacity="0.933" filter="url(#filter50_f_1009_690)">
<path d="M338.891 300.914H312.086C304.684 300.914 298.684 306.915 298.684 314.317V341.121C298.684 348.523 304.684 354.524 312.086 354.524H338.891C346.293 354.524 352.293 348.523 352.293 341.121V314.317C352.293 306.915 346.293 300.914 338.891 300.914Z" fill="#DDFE55"/>
</g>
<g opacity="0.299" filter="url(#filter51_f_1009_690)">
<path d="M338.891 300.914H312.086C304.684 300.914 298.684 306.915 298.684 314.317V341.121C298.684 348.523 304.684 354.524 312.086 354.524H338.891C346.293 354.524 352.293 348.523 352.293 341.121V314.317C352.293 306.915 346.293 300.914 338.891 300.914Z" fill="white"/>
</g>
<path d="M338.891 300.914H312.086C304.684 300.914 298.684 306.915 298.684 314.317V341.121C298.684 348.523 304.684 354.524 312.086 354.524H338.891C346.293 354.524 352.293 348.523 352.293 341.121V314.317C352.293 306.915 346.293 300.914 338.891 300.914Z" fill="#F9FFDF"/>
<g opacity="0.765" filter="url(#filter52_f_1009_690)">
<path d="M396.328 300.914H369.524C362.122 300.914 356.121 306.915 356.121 314.317V341.121C356.121 348.523 362.122 354.524 369.524 354.524H396.328C403.73 354.524 409.731 348.523 409.731 341.121V314.317C409.731 306.915 403.73 300.914 396.328 300.914Z" fill="#DDFE55"/>
</g>
<g opacity="0.765" filter="url(#filter53_f_1009_690)">
<path d="M396.328 300.914H369.524C362.122 300.914 356.121 306.915 356.121 314.317V341.121C356.121 348.523 362.122 354.524 369.524 354.524H396.328C403.73 354.524 409.731 348.523 409.731 341.121V314.317C409.731 306.915 403.73 300.914 396.328 300.914Z" fill="#DDFE55"/>
</g>
<g opacity="0.765" filter="url(#filter54_f_1009_690)">
<path d="M396.328 300.914H369.524C362.122 300.914 356.121 306.915 356.121 314.317V341.121C356.121 348.523 362.122 354.524 369.524 354.524H396.328C403.73 354.524 409.731 348.523 409.731 341.121V314.317C409.731 306.915 403.73 300.914 396.328 300.914Z" fill="#DDFE55"/>
</g>
<g opacity="0.245" filter="url(#filter55_f_1009_690)">
<path d="M396.328 300.914H369.524C362.122 300.914 356.121 306.915 356.121 314.317V341.121C356.121 348.523 362.122 354.524 369.524 354.524H396.328C403.73 354.524 409.731 348.523 409.731 341.121V314.317C409.731 306.915 403.73 300.914 396.328 300.914Z" fill="white"/>
</g>
<path d="M396.328 300.914H369.524C362.122 300.914 356.121 306.915 356.121 314.317V341.121C356.121 348.523 362.122 354.524 369.524 354.524H396.328C403.73 354.524 409.731 348.523 409.731 341.121V314.317C409.731 306.915 403.73 300.914 396.328 300.914Z" fill="#F5FFCE"/>
<g opacity="0.946" filter="url(#filter56_f_1009_690)">
<path d="M453.77 300.914H426.965C419.563 300.914 413.562 306.915 413.562 314.317V341.121C413.562 348.523 419.563 354.524 426.965 354.524H453.77C461.172 354.524 467.172 348.523 467.172 341.121V314.317C467.172 306.915 461.172 300.914 453.77 300.914Z" fill="#DDFE55"/>
</g>
<g opacity="0.946" filter="url(#filter57_f_1009_690)">
<path d="M453.77 300.914H426.965C419.563 300.914 413.562 306.915 413.562 314.317V341.121C413.562 348.523 419.563 354.524 426.965 354.524H453.77C461.172 354.524 467.172 348.523 467.172 341.121V314.317C467.172 306.915 461.172 300.914 453.77 300.914Z" fill="#DDFE55"/>
</g>
<g opacity="0.946" filter="url(#filter58_f_1009_690)">
<path d="M453.77 300.914H426.965C419.563 300.914 413.562 306.915 413.562 314.317V341.121C413.562 348.523 419.563 354.524 426.965 354.524H453.77C461.172 354.524 467.172 348.523 467.172 341.121V314.317C467.172 306.915 461.172 300.914 453.77 300.914Z" fill="#DDFE55"/>
</g>
<g opacity="0.303" filter="url(#filter59_f_1009_690)">
<path d="M453.77 300.914H426.965C419.563 300.914 413.562 306.915 413.562 314.317V341.121C413.562 348.523 419.563 354.524 426.965 354.524H453.77C461.172 354.524 467.172 348.523 467.172 341.121V314.317C467.172 306.915 461.172 300.914 453.77 300.914Z" fill="white"/>
</g>
<path d="M453.77 300.914H426.965C419.563 300.914 413.562 306.915 413.562 314.317V341.121C413.562 348.523 419.563 354.524 426.965 354.524H453.77C461.172 354.524 467.172 348.523 467.172 341.121V314.317C467.172 306.915 461.172 300.914 453.77 300.914Z" fill="#F9FFE0"/>
<g opacity="0.94" filter="url(#filter60_f_1009_690)">
<path d="M281.453 358.355H254.649C247.247 358.355 241.246 364.356 241.246 371.758V398.563C241.246 405.965 247.247 411.965 254.649 411.965H281.453C288.855 411.965 294.856 405.965 294.856 398.563V371.758C294.856 364.356 288.855 358.355 281.453 358.355Z" fill="#DDFE55"/>
</g>
<g opacity="0.94" filter="url(#filter61_f_1009_690)">
<path d="M281.453 358.355H254.649C247.247 358.355 241.246 364.356 241.246 371.758V398.563C241.246 405.965 247.247 411.965 254.649 411.965H281.453C288.855 411.965 294.856 405.965 294.856 398.563V371.758C294.856 364.356 288.855 358.355 281.453 358.355Z" fill="#DDFE55"/>
</g>
<g opacity="0.94" filter="url(#filter62_f_1009_690)">
<path d="M281.453 358.355H254.649C247.247 358.355 241.246 364.356 241.246 371.758V398.563C241.246 405.965 247.247 411.965 254.649 411.965H281.453C288.855 411.965 294.856 405.965 294.856 398.563V371.758C294.856 364.356 288.855 358.355 281.453 358.355Z" fill="#DDFE55"/>
</g>
<g opacity="0.301" filter="url(#filter63_f_1009_690)">
<path d="M281.453 358.355H254.649C247.247 358.355 241.246 364.356 241.246 371.758V398.563C241.246 405.965 247.247 411.965 254.649 411.965H281.453C288.855 411.965 294.856 405.965 294.856 398.563V371.758C294.856 364.356 288.855 358.355 281.453 358.355Z" fill="white"/>
</g>
<path d="M281.453 358.355H254.649C247.247 358.355 241.246 364.356 241.246 371.758V398.563C241.246 405.965 247.247 411.965 254.649 411.965H281.453C288.855 411.965 294.856 405.965 294.856 398.563V371.758C294.856 364.356 288.855 358.355 281.453 358.355Z" fill="#F9FFE0"/>
<g opacity="0.993" filter="url(#filter64_f_1009_690)">
<path d="M338.891 358.355H312.086C304.684 358.355 298.684 364.356 298.684 371.758V398.563C298.684 405.965 304.684 411.965 312.086 411.965H338.891C346.293 411.965 352.293 405.965 352.293 398.563V371.758C352.293 364.356 346.293 358.355 338.891 358.355Z" fill="#DDFE55"/>
</g>
<g opacity="0.993" filter="url(#filter65_f_1009_690)">
<path d="M338.891 358.355H312.086C304.684 358.355 298.684 364.356 298.684 371.758V398.563C298.684 405.965 304.684 411.965 312.086 411.965H338.891C346.293 411.965 352.293 405.965 352.293 398.563V371.758C352.293 364.356 346.293 358.355 338.891 358.355Z" fill="#DDFE55"/>
</g>
<g opacity="0.993" filter="url(#filter66_f_1009_690)">
<path d="M338.891 358.355H312.086C304.684 358.355 298.684 364.356 298.684 371.758V398.563C298.684 405.965 304.684 411.965 312.086 411.965H338.891C346.293 411.965 352.293 405.965 352.293 398.563V371.758C352.293 364.356 346.293 358.355 338.891 358.355Z" fill="#DDFE55"/>
</g>
<g opacity="0.318" filter="url(#filter67_f_1009_690)">
<path d="M338.891 358.355H312.086C304.684 358.355 298.684 364.356 298.684 371.758V398.563C298.684 405.965 304.684 411.965 312.086 411.965H338.891C346.293 411.965 352.293 405.965 352.293 398.563V371.758C352.293 364.356 346.293 358.355 338.891 358.355Z" fill="white"/>
</g>
<path d="M338.891 358.355H312.086C304.684 358.355 298.684 364.356 298.684 371.758V398.563C298.684 405.965 304.684 411.965 312.086 411.965H338.891C346.293 411.965 352.293 405.965 352.293 398.563V371.758C352.293 364.356 346.293 358.355 338.891 358.355Z" fill="#FAFFE5"/>
<g opacity="0.748" filter="url(#filter68_f_1009_690)">
<path d="M396.328 358.355H369.524C362.122 358.355 356.121 364.356 356.121 371.758V398.563C356.121 405.965 362.122 411.965 369.524 411.965H396.328C403.73 411.965 409.731 405.965 409.731 398.563V371.758C409.731 364.356 403.73 358.355 396.328 358.355Z" fill="#DDFE55"/>
</g>
<g opacity="0.748" filter="url(#filter69_f_1009_690)">
<path d="M396.328 358.355H369.524C362.122 358.355 356.121 364.356 356.121 371.758V398.563C356.121 405.965 362.122 411.965 369.524 411.965H396.328C403.73 411.965 409.731 405.965 409.731 398.563V371.758C409.731 364.356 403.73 358.355 396.328 358.355Z" fill="#DDFE55"/>
</g>
<g opacity="0.748" filter="url(#filter70_f_1009_690)">
<path d="M396.328 358.355H369.524C362.122 358.355 356.121 364.356 356.121 371.758V398.563C356.121 405.965 362.122 411.965 369.524 411.965H396.328C403.73 411.965 409.731 405.965 409.731 398.563V371.758C409.731 364.356 403.73 358.355 396.328 358.355Z" fill="#DDFE55"/>
</g>
<g opacity="0.239" filter="url(#filter71_f_1009_690)">
<path d="M396.328 358.355H369.524C362.122 358.355 356.121 364.356 356.121 371.758V398.563C356.121 405.965 362.122 411.965 369.524 411.965H396.328C403.73 411.965 409.731 405.965 409.731 398.563V371.758C409.731 364.356 403.73 358.355 396.328 358.355Z" fill="white"/>
</g>
<path d="M396.328 358.355H369.524C362.122 358.355 356.121 364.356 356.121 371.758V398.563C356.121 405.965 362.122 411.965 369.524 411.965H396.328C403.73 411.965 409.731 405.965 409.731 398.563V371.758C409.731 364.356 403.73 358.355 396.328 358.355Z" fill="#F5FFCC"/>
<g opacity="0.873" filter="url(#filter72_f_1009_690)">
<path d="M338.891 415.793H312.086C304.684 415.793 298.684 421.793 298.684 429.195V456C298.684 463.402 304.684 469.403 312.086 469.403H338.891C346.293 469.403 352.293 463.402 352.293 456V429.195C352.293 421.793 346.293 415.793 338.891 415.793Z" fill="#DDFE55"/>
</g>
<g opacity="0.873" filter="url(#filter73_f_1009_690)">
<path d="M338.891 415.793H312.086C304.684 415.793 298.684 421.793 298.684 429.195V456C298.684 463.402 304.684 469.403 312.086 469.403H338.891C346.293 469.403 352.293 463.402 352.293 456V429.195C352.293 421.793 346.293 415.793 338.891 415.793Z" fill="#DDFE55"/>
</g>
<g opacity="0.873" filter="url(#filter74_f_1009_690)">
<path d="M338.891 415.793H312.086C304.684 415.793 298.684 421.793 298.684 429.195V456C298.684 463.402 304.684 469.403 312.086 469.403H338.891C346.293 469.403 352.293 463.402 352.293 456V429.195C352.293 421.793 346.293 415.793 338.891 415.793Z" fill="#DDFE55"/>
</g>
<g opacity="0.279" filter="url(#filter75_f_1009_690)">
<path d="M338.891 415.793H312.086C304.684 415.793 298.684 421.793 298.684 429.195V456C298.684 463.402 304.684 469.403 312.086 469.403H338.891C346.293 469.403 352.293 463.402 352.293 456V429.195C352.293 421.793 346.293 415.793 338.891 415.793Z" fill="white"/>
</g>
<path d="M224.012 71.1602H197.207C189.805 71.1602 183.805 77.1606 183.805 84.5626V111.367C183.805 118.769 189.805 124.77 197.207 124.77H224.012C231.414 124.77 237.414 118.769 237.414 111.367V84.5626C237.414 77.1606 231.414 71.1602 224.012 71.1602Z" fill="white"/>
<path d="M281.453 71.1602H254.649C247.247 71.1602 241.246 77.1606 241.246 84.5626V111.367C241.246 118.769 247.247 124.77 254.649 124.77H281.453C288.855 124.77 294.856 118.769 294.856 111.367V84.5626C294.856 77.1606 288.855 71.1602 281.453 71.1602Z" fill="white"/>
<path d="M338.891 71.1602H312.086C304.684 71.1602 298.684 77.1606 298.684 84.5626V111.367C298.684 118.769 304.684 124.77 312.086 124.77H338.891C346.293 124.77 352.293 118.769 352.293 111.367V84.5626C352.293 77.1606 346.293 71.1602 338.891 71.1602Z" fill="white"/>
<path d="M396.328 71.1602H369.524C362.122 71.1602 356.121 77.1606 356.121 84.5626V111.367C356.121 118.769 362.122 124.77 369.524 124.77H396.328C403.73 124.77 409.731 118.769 409.731 111.367V84.5626C409.731 77.1606 403.73 71.1602 396.328 71.1602Z" fill="white"/>
<path d="M453.77 71.1602H426.965C419.563 71.1602 413.562 77.1606 413.562 84.5626V111.367C413.562 118.769 419.563 124.77 426.965 124.77H453.77C461.172 124.77 467.172 118.769 467.172 111.367V84.5626C467.172 77.1606 461.172 71.1602 453.77 71.1602Z" fill="white"/>
<path d="M166.575 128.598H139.77C132.368 128.598 126.367 134.598 126.367 142V168.805C126.367 176.207 132.368 182.207 139.77 182.207H166.575C173.976 182.207 179.977 176.207 179.977 168.805V142C179.977 134.598 173.976 128.598 166.575 128.598Z" fill="white"/>
<path d="M511.207 128.598H484.402C477 128.598 471 134.598 471 142V168.805C471 176.207 477 182.207 484.402 182.207H511.207C518.609 182.207 524.61 176.207 524.61 168.805V142C524.61 134.598 518.609 128.598 511.207 128.598Z" fill="white"/>
<path d="M109.133 186.039H82.3282C74.9263 186.039 68.9258 192.04 68.9258 199.442V226.246C68.9258 233.648 74.9263 239.649 82.3282 239.649H109.133C116.535 239.649 122.536 233.648 122.536 226.246V199.442C122.536 192.04 116.535 186.039 109.133 186.039Z" fill="white"/>
<path d="M568.649 186.039H541.844C534.442 186.039 528.441 192.04 528.441 199.442V226.246C528.441 233.648 534.442 239.649 541.844 239.649H568.649C576.051 239.649 582.051 233.648 582.051 226.246V199.442C582.051 192.04 576.051 186.039 568.649 186.039Z" fill="white"/>
<path d="M109.133 243.477H82.3282C74.9263 243.477 68.9258 249.477 68.9258 256.879V283.684C68.9258 291.086 74.9263 297.086 82.3282 297.086H109.133C116.535 297.086 122.536 291.086 122.536 283.684V256.879C122.536 249.477 116.535 243.477 109.133 243.477Z" fill="white"/>
<path d="M568.649 243.477H541.844C534.442 243.477 528.441 249.477 528.441 256.879V283.684C528.441 291.086 534.442 297.086 541.844 297.086H568.649C576.051 297.086 582.051 291.086 582.051 283.684V256.879C582.051 249.477 576.051 243.477 568.649 243.477Z" fill="white"/>
<path d="M109.133 300.914H82.3282C74.9263 300.914 68.9258 306.915 68.9258 314.317V341.121C68.9258 348.523 74.9263 354.524 82.3282 354.524H109.133C116.535 354.524 122.536 348.523 122.536 341.121V314.317C122.536 306.915 116.535 300.914 109.133 300.914Z" fill="white"/>
<path d="M568.649 300.914H541.844C534.442 300.914 528.441 306.915 528.441 314.317V341.121C528.441 348.523 534.442 354.524 541.844 354.524H568.649C576.051 354.524 582.051 348.523 582.051 341.121V314.317C582.051 306.915 576.051 300.914 568.649 300.914Z" fill="white"/>
<path d="M166.575 358.355H139.77C132.368 358.355 126.367 364.356 126.367 371.758V398.563C126.367 405.965 132.368 411.965 139.77 411.965H166.575C173.976 411.965 179.977 405.965 179.977 398.563V371.758C179.977 364.356 173.976 358.355 166.575 358.355Z" fill="white"/>
<path d="M511.207 358.355H484.402C477 358.355 471 364.356 471 371.758V398.563C471 405.965 477 411.965 484.402 411.965H511.207C518.609 411.965 524.61 405.965 524.61 398.563V371.758C524.61 364.356 518.609 358.355 511.207 358.355Z" fill="white"/>
<path d="M224.012 415.793H197.207C189.805 415.793 183.805 421.793 183.805 429.195V456C183.805 463.402 189.805 469.403 197.207 469.403H224.012C231.414 469.403 237.414 463.402 237.414 456V429.195C237.414 421.793 231.414 415.793 224.012 415.793Z" fill="white"/>
<path d="M453.77 415.793H426.965C419.563 415.793 413.562 421.793 413.562 429.195V456C413.562 463.402 419.563 469.403 426.965 469.403H453.77C461.172 469.403 467.172 463.402 467.172 456V429.195C467.172 421.793 461.172 415.793 453.77 415.793Z" fill="white"/>
<path d="M224.012 473.234H197.207C189.805 473.234 183.805 479.235 183.805 486.637V513.442C183.805 520.844 189.805 526.844 197.207 526.844H224.012C231.414 526.844 237.414 520.844 237.414 513.442V486.637C237.414 479.235 231.414 473.234 224.012 473.234Z" fill="white"/>
<path d="M281.453 473.234H254.649C247.247 473.234 241.246 479.235 241.246 486.637V513.442C241.246 520.844 247.247 526.844 254.649 526.844H281.453C288.855 526.844 294.856 520.844 294.856 513.442V486.637C294.856 479.235 288.855 473.234 281.453 473.234Z" fill="white"/>
<path d="M338.891 473.234H312.086C304.684 473.234 298.684 479.235 298.684 486.637V513.442C298.684 520.844 304.684 526.844 312.086 526.844H338.891C346.293 526.844 352.293 520.844 352.293 513.442V486.637C352.293 479.235 346.293 473.234 338.891 473.234Z" fill="white"/>
<path d="M396.328 473.234H369.524C362.122 473.234 356.121 479.235 356.121 486.637V513.442C356.121 520.844 362.122 526.844 369.524 526.844H396.328C403.73 526.844 409.731 520.844 409.731 513.442V486.637C409.731 479.235 403.73 473.234 396.328 473.234Z" fill="white"/>
<path d="M453.77 473.234H426.965C419.563 473.234 413.562 479.235 413.562 486.637V513.442C413.562 520.844 419.563 526.844 426.965 526.844H453.77C461.172 526.844 467.172 520.844 467.172 513.442V486.637C467.172 479.235 461.172 473.234 453.77 473.234Z" fill="white"/>
<path d="M224.012 530.672H197.207C189.805 530.672 183.805 536.672 183.805 544.074V570.879C183.805 578.281 189.805 584.282 197.207 584.282H224.012C231.414 584.282 237.414 578.281 237.414 570.879V544.074C237.414 536.672 231.414 530.672 224.012 530.672Z" fill="white"/>
<path d="M281.453 530.672H254.649C247.247 530.672 241.246 536.672 241.246 544.074V570.879C241.246 578.281 247.247 584.282 254.649 584.282H281.453C288.855 584.282 294.856 578.281 294.856 570.879V544.074C294.856 536.672 288.855 530.672 281.453 530.672Z" fill="white"/>
<path d="M338.891 530.672H312.086C304.684 530.672 298.684 536.672 298.684 544.074V570.879C298.684 578.281 304.684 584.282 312.086 584.282H338.891C346.293 584.282 352.293 578.281 352.293 570.879V544.074C352.293 536.672 346.293 530.672 338.891 530.672Z" fill="white"/>
<path d="M396.328 530.672H369.524C362.122 530.672 356.121 536.672 356.121 544.074V570.879C356.121 578.281 362.122 584.282 369.524 584.282H396.328C403.73 584.282 409.731 578.281 409.731 570.879V544.074C409.731 536.672 403.73 530.672 396.328 530.672Z" fill="white"/>
<path d="M453.77 530.672H426.965C419.563 530.672 413.562 536.672 413.562 544.074V570.879C413.562 578.281 419.563 584.282 426.965 584.282H453.77C461.172 584.282 467.172 578.281 467.172 570.879V544.074C467.172 536.672 461.172 530.672 453.77 530.672Z" fill="white"/>
<defs>
<filter id="filter0_f_1009_690" x="-0.000183105" y="2.23419" width="421.219" height="421.219" filterUnits="userSpaceOnUse" color-interpolation-filters="sRGB">
<feFlood flood-opacity="0" result="BackgroundImageFix"/>
<feBlend mode="normal" in="SourceGraphic" in2="BackgroundImageFix" result="shape"/>
<feGaussianBlur stdDeviation="91.9024" result="effect1_foregroundBlur_1009_690"/>
</filter>
<filter id="filter1_f_1009_690" x="-0.000183105" y="2.23419" width="421.219" height="421.219" filterUnits="userSpaceOnUse" color-interpolation-filters="sRGB">
<feFlood flood-opacity="0" result="BackgroundImageFix"/>
<feBlend mode="normal" in="SourceGraphic" in2="BackgroundImageFix" result="shape"/>
<feGaussianBlur stdDeviation="91.9024" result="effect1_foregroundBlur_1009_690"/>
</filter>
<filter id="filter2_f_1009_690" x="107.219" y="109.454" width="206.78" height="206.78" filterUnits="userSpaceOnUse" color-interpolation-filters="sRGB">
<feFlood flood-opacity="0" result="BackgroundImageFix"/>
<feBlend mode="normal" in="SourceGraphic" in2="BackgroundImageFix" result="shape"/>
<feGaussianBlur stdDeviation="38.2927" result="effect1_foregroundBlur_1009_690"/>
</filter>
<filter id="filter3_f_1009_690" x="122.536" y="124.771" width="176.146" height="176.146" filterUnits="userSpaceOnUse" color-interpolation-filters="sRGB">
<feFlood flood-opacity="0" result="BackgroundImageFix"/>
<feBlend mode="normal" in="SourceGraphic" in2="BackgroundImageFix" result="shape"/>
<feGaussianBlur stdDeviation="30.6341" result="effect1_foregroundBlur_1009_690"/>
</filter>
<filter id="filter4_f_1009_690" x="57.4412" y="2.23419" width="421.219" height="421.219" filterUnits="userSpaceOnUse" color-interpolation-filters="sRGB">
<feFlood flood-opacity="0" result="BackgroundImageFix"/>
<feBlend mode="normal" in="SourceGraphic" in2="BackgroundImageFix" result="shape"/>
<feGaussianBlur stdDeviation="91.9024" result="effect1_foregroundBlur_1009_690"/>
</filter>
<filter id="filter5_f_1009_690" x="57.4412" y="2.23419" width="421.219" height="421.219" filterUnits="userSpaceOnUse" color-interpolation-filters="sRGB">
<feFlood flood-opacity="0" result="BackgroundImageFix"/>
<feBlend mode="normal" in="SourceGraphic" in2="BackgroundImageFix" result="shape"/>
<feGaussianBlur stdDeviation="91.9024" result="effect1_foregroundBlur_1009_690"/>
</filter>
<filter id="filter6_f_1009_690" x="164.661" y="109.454" width="206.78" height="206.78" filterUnits="userSpaceOnUse" color-interpolation-filters="sRGB">
<feFlood flood-opacity="0" result="BackgroundImageFix"/>
<feBlend mode="normal" in="SourceGraphic" in2="BackgroundImageFix" result="shape"/>
<feGaussianBlur stdDeviation="38.2927" result="effect1_foregroundBlur_1009_690"/>
</filter>
<filter id="filter7_f_1009_690" x="179.978" y="124.771" width="176.146" height="176.146" filterUnits="userSpaceOnUse" color-interpolation-filters="sRGB">
<feFlood flood-opacity="0" result="BackgroundImageFix"/>
<feBlend mode="normal" in="SourceGraphic" in2="BackgroundImageFix" result="shape"/>
<feGaussianBlur stdDeviation="30.6341" result="effect1_foregroundBlur_1009_690"/>
</filter>
<filter id="filter8_f_1009_690" x="114.879" y="2.23419" width="421.219" height="421.219" filterUnits="userSpaceOnUse" color-interpolation-filters="sRGB">
<feFlood flood-opacity="0" result="BackgroundImageFix"/>
<feBlend mode="normal" in="SourceGraphic" in2="BackgroundImageFix" result="shape"/>
<feGaussianBlur stdDeviation="91.9024" result="effect1_foregroundBlur_1009_690"/>
</filter>
<filter id="filter9_f_1009_690" x="114.879" y="2.23419" width="421.219" height="421.219" filterUnits="userSpaceOnUse" color-interpolation-filters="sRGB">
<feFlood flood-opacity="0" result="BackgroundImageFix"/>
<feBlend mode="normal" in="SourceGraphic" in2="BackgroundImageFix" result="shape"/>
<feGaussianBlur stdDeviation="91.9024" result="effect1_foregroundBlur_1009_690"/>
</filter>
<filter id="filter10_f_1009_690" x="222.098" y="109.454" width="206.78" height="206.78" filterUnits="userSpaceOnUse" color-interpolation-filters="sRGB">
<feFlood flood-opacity="0" result="BackgroundImageFix"/>
<feBlend mode="normal" in="SourceGraphic" in2="BackgroundImageFix" result="shape"/>
<feGaussianBlur stdDeviation="38.2927" result="effect1_foregroundBlur_1009_690"/>
</filter>
<filter id="filter11_f_1009_690" x="237.415" y="124.771" width="176.146" height="176.146" filterUnits="userSpaceOnUse" color-interpolation-filters="sRGB">
<feFlood flood-opacity="0" result="BackgroundImageFix"/>
<feBlend mode="normal" in="SourceGraphic" in2="BackgroundImageFix" result="shape"/>
<feGaussianBlur stdDeviation="30.6341" result="effect1_foregroundBlur_1009_690"/>
</filter>
<filter id="filter12_f_1009_690" x="172.316" y="2.23419" width="421.219" height="421.219" filterUnits="userSpaceOnUse" color-interpolation-filters="sRGB">
<feFlood flood-opacity="0" result="BackgroundImageFix"/>
<feBlend mode="normal" in="SourceGraphic" in2="BackgroundImageFix" result="shape"/>
<feGaussianBlur stdDeviation="91.9024" result="effect1_foregroundBlur_1009_690"/>
</filter>
<filter id="filter13_f_1009_690" x="172.316" y="2.23419" width="421.219" height="421.219" filterUnits="userSpaceOnUse" color-interpolation-filters="sRGB">
<feFlood flood-opacity="0" result="BackgroundImageFix"/>
<feBlend mode="normal" in="SourceGraphic" in2="BackgroundImageFix" result="shape"/>
<feGaussianBlur stdDeviation="91.9024" result="effect1_foregroundBlur_1009_690"/>
</filter>
<filter id="filter14_f_1009_690" x="279.536" y="109.454" width="206.78" height="206.78" filterUnits="userSpaceOnUse" color-interpolation-filters="sRGB">
<feFlood flood-opacity="0" result="BackgroundImageFix"/>
<feBlend mode="normal" in="SourceGraphic" in2="BackgroundImageFix" result="shape"/>
<feGaussianBlur stdDeviation="38.2927" result="effect1_foregroundBlur_1009_690"/>
</filter>
<filter id="filter15_f_1009_690" x="294.853" y="124.771" width="176.146" height="176.146" filterUnits="userSpaceOnUse" color-interpolation-filters="sRGB">
<feFlood flood-opacity="0" result="BackgroundImageFix"/>
<feBlend mode="normal" in="SourceGraphic" in2="BackgroundImageFix" result="shape"/>
<feGaussianBlur stdDeviation="30.6341" result="effect1_foregroundBlur_1009_690"/>
</filter>
<filter id="filter16_f_1009_690" x="229.758" y="2.23419" width="421.219" height="421.219" filterUnits="userSpaceOnUse" color-interpolation-filters="sRGB">
<feFlood flood-opacity="0" result="BackgroundImageFix"/>
<feBlend mode="normal" in="SourceGraphic" in2="BackgroundImageFix" result="shape"/>
<feGaussianBlur stdDeviation="91.9024" result="effect1_foregroundBlur_1009_690"/>
</filter>
<filter id="filter17_f_1009_690" x="229.758" y="2.23419" width="421.219" height="421.219" filterUnits="userSpaceOnUse" color-interpolation-filters="sRGB">
<feFlood flood-opacity="0" result="BackgroundImageFix"/>
<feBlend mode="normal" in="SourceGraphic" in2="BackgroundImageFix" result="shape"/>
<feGaussianBlur stdDeviation="91.9024" result="effect1_foregroundBlur_1009_690"/>
</filter>
<filter id="filter18_f_1009_690" x="336.977" y="109.454" width="206.78" height="206.78" filterUnits="userSpaceOnUse" color-interpolation-filters="sRGB">
<feFlood flood-opacity="0" result="BackgroundImageFix"/>
<feBlend mode="normal" in="SourceGraphic" in2="BackgroundImageFix" result="shape"/>
<feGaussianBlur stdDeviation="38.2927" result="effect1_foregroundBlur_1009_690"/>
</filter>
<filter id="filter19_f_1009_690" x="352.294" y="124.771" width="176.146" height="176.146" filterUnits="userSpaceOnUse" color-interpolation-filters="sRGB">
<feFlood flood-opacity="0" result="BackgroundImageFix"/>
<feBlend mode="normal" in="SourceGraphic" in2="BackgroundImageFix" result="shape"/>
<feGaussianBlur stdDeviation="30.6341" result="effect1_foregroundBlur_1009_690"/>
</filter>
<filter id="filter20_f_1009_690" x="-0.000183105" y="59.6717" width="421.219" height="421.219" filterUnits="userSpaceOnUse" color-interpolation-filters="sRGB">
<feFlood flood-opacity="0" result="BackgroundImageFix"/>
<feBlend mode="normal" in="SourceGraphic" in2="BackgroundImageFix" result="shape"/>
<feGaussianBlur stdDeviation="91.9024" result="effect1_foregroundBlur_1009_690"/>
</filter>
<filter id="filter21_f_1009_690" x="-0.000183105" y="59.6717" width="421.219" height="421.219" filterUnits="userSpaceOnUse" color-interpolation-filters="sRGB">
<feFlood flood-opacity="0" result="BackgroundImageFix"/>
<feBlend mode="normal" in="SourceGraphic" in2="BackgroundImageFix" result="shape"/>
<feGaussianBlur stdDeviation="91.9024" result="effect1_foregroundBlur_1009_690"/>
</filter>
<filter id="filter22_f_1009_690" x="107.219" y="166.891" width="206.78" height="206.78" filterUnits="userSpaceOnUse" color-interpolation-filters="sRGB">
<feFlood flood-opacity="0" result="BackgroundImageFix"/>
<feBlend mode="normal" in="SourceGraphic" in2="BackgroundImageFix" result="shape"/>
<feGaussianBlur stdDeviation="38.2927" result="effect1_foregroundBlur_1009_690"/>
</filter>
<filter id="filter23_f_1009_690" x="122.536" y="182.208" width="176.146" height="176.146" filterUnits="userSpaceOnUse" color-interpolation-filters="sRGB">
<feFlood flood-opacity="0" result="BackgroundImageFix"/>
<feBlend mode="normal" in="SourceGraphic" in2="BackgroundImageFix" result="shape"/>
<feGaussianBlur stdDeviation="30.6341" result="effect1_foregroundBlur_1009_690"/>
</filter>
<filter id="filter24_f_1009_690" x="57.4412" y="59.6717" width="421.219" height="421.219" filterUnits="userSpaceOnUse" color-interpolation-filters="sRGB">
<feFlood flood-opacity="0" result="BackgroundImageFix"/>
<feBlend mode="normal" in="SourceGraphic" in2="BackgroundImageFix" result="shape"/>
<feGaussianBlur stdDeviation="91.9024" result="effect1_foregroundBlur_1009_690"/>
</filter>
<filter id="filter25_f_1009_690" x="57.4412" y="59.6717" width="421.219" height="421.219" filterUnits="userSpaceOnUse" color-interpolation-filters="sRGB">
<feFlood flood-opacity="0" result="BackgroundImageFix"/>
<feBlend mode="normal" in="SourceGraphic" in2="BackgroundImageFix" result="shape"/>
<feGaussianBlur stdDeviation="91.9024" result="effect1_foregroundBlur_1009_690"/>
</filter>
<filter id="filter26_f_1009_690" x="164.661" y="166.891" width="206.78" height="206.78" filterUnits="userSpaceOnUse" color-interpolation-filters="sRGB">
<feFlood flood-opacity="0" result="BackgroundImageFix"/>
<feBlend mode="normal" in="SourceGraphic" in2="BackgroundImageFix" result="shape"/>
<feGaussianBlur stdDeviation="38.2927" result="effect1_foregroundBlur_1009_690"/>
</filter>
<filter id="filter27_f_1009_690" x="179.978" y="182.208" width="176.146" height="176.146" filterUnits="userSpaceOnUse" color-interpolation-filters="sRGB">
<feFlood flood-opacity="0" result="BackgroundImageFix"/>
<feBlend mode="normal" in="SourceGraphic" in2="BackgroundImageFix" result="shape"/>
<feGaussianBlur stdDeviation="30.6341" result="effect1_foregroundBlur_1009_690"/>
</filter>
<filter id="filter28_f_1009_690" x="114.879" y="59.6717" width="421.219" height="421.219" filterUnits="userSpaceOnUse" color-interpolation-filters="sRGB">
<feFlood flood-opacity="0" result="BackgroundImageFix"/>
<feBlend mode="normal" in="SourceGraphic" in2="BackgroundImageFix" result="shape"/>
<feGaussianBlur stdDeviation="91.9024" result="effect1_foregroundBlur_1009_690"/>
</filter>
<filter id="filter29_f_1009_690" x="114.879" y="59.6717" width="421.219" height="421.219" filterUnits="userSpaceOnUse" color-interpolation-filters="sRGB">
<feFlood flood-opacity="0" result="BackgroundImageFix"/>
<feBlend mode="normal" in="SourceGraphic" in2="BackgroundImageFix" result="shape"/>
<feGaussianBlur stdDeviation="91.9024" result="effect1_foregroundBlur_1009_690"/>
</filter>
<filter id="filter30_f_1009_690" x="222.098" y="166.891" width="206.78" height="206.78" filterUnits="userSpaceOnUse" color-interpolation-filters="sRGB">
<feFlood flood-opacity="0" result="BackgroundImageFix"/>
<feBlend mode="normal" in="SourceGraphic" in2="BackgroundImageFix" result="shape"/>
<feGaussianBlur stdDeviation="38.2927" result="effect1_foregroundBlur_1009_690"/>
</filter>
<filter id="filter31_f_1009_690" x="237.415" y="182.208" width="176.146" height="176.146" filterUnits="userSpaceOnUse" color-interpolation-filters="sRGB">
<feFlood flood-opacity="0" result="BackgroundImageFix"/>
<feBlend mode="normal" in="SourceGraphic" in2="BackgroundImageFix" result="shape"/>
<feGaussianBlur stdDeviation="30.6341" result="effect1_foregroundBlur_1009_690"/>
</filter>
<filter id="filter32_f_1009_690" x="172.316" y="59.6717" width="421.219" height="421.219" filterUnits="userSpaceOnUse" color-interpolation-filters="sRGB">
<feFlood flood-opacity="0" result="BackgroundImageFix"/>
<feBlend mode="normal" in="SourceGraphic" in2="BackgroundImageFix" result="shape"/>
<feGaussianBlur stdDeviation="91.9024" result="effect1_foregroundBlur_1009_690"/>
</filter>
<filter id="filter33_f_1009_690" x="172.316" y="59.6717" width="421.219" height="421.219" filterUnits="userSpaceOnUse" color-interpolation-filters="sRGB">
<feFlood flood-opacity="0" result="BackgroundImageFix"/>
<feBlend mode="normal" in="SourceGraphic" in2="BackgroundImageFix" result="shape"/>
<feGaussianBlur stdDeviation="91.9024" result="effect1_foregroundBlur_1009_690"/>
</filter>
<filter id="filter34_f_1009_690" x="279.536" y="166.891" width="206.78" height="206.78" filterUnits="userSpaceOnUse" color-interpolation-filters="sRGB">
<feFlood flood-opacity="0" result="BackgroundImageFix"/>
<feBlend mode="normal" in="SourceGraphic" in2="BackgroundImageFix" result="shape"/>
<feGaussianBlur stdDeviation="38.2927" result="effect1_foregroundBlur_1009_690"/>
</filter>
<filter id="filter35_f_1009_690" x="294.853" y="182.208" width="176.146" height="176.146" filterUnits="userSpaceOnUse" color-interpolation-filters="sRGB">
<feFlood flood-opacity="0" result="BackgroundImageFix"/>
<feBlend mode="normal" in="SourceGraphic" in2="BackgroundImageFix" result="shape"/>
<feGaussianBlur stdDeviation="30.6341" result="effect1_foregroundBlur_1009_690"/>
</filter>
<filter id="filter36_f_1009_690" x="229.758" y="59.6717" width="421.219" height="421.219" filterUnits="userSpaceOnUse" color-interpolation-filters="sRGB">
<feFlood flood-opacity="0" result="BackgroundImageFix"/>
<feBlend mode="normal" in="SourceGraphic" in2="BackgroundImageFix" result="shape"/>
<feGaussianBlur stdDeviation="91.9024" result="effect1_foregroundBlur_1009_690"/>
</filter>
<filter id="filter37_f_1009_690" x="229.758" y="59.6717" width="421.219" height="421.219" filterUnits="userSpaceOnUse" color-interpolation-filters="sRGB">
<feFlood flood-opacity="0" result="BackgroundImageFix"/>
<feBlend mode="normal" in="SourceGraphic" in2="BackgroundImageFix" result="shape"/>
<feGaussianBlur stdDeviation="91.9024" result="effect1_foregroundBlur_1009_690"/>
</filter>
<filter id="filter38_f_1009_690" x="336.977" y="166.891" width="206.78" height="206.78" filterUnits="userSpaceOnUse" color-interpolation-filters="sRGB">
<feFlood flood-opacity="0" result="BackgroundImageFix"/>
<feBlend mode="normal" in="SourceGraphic" in2="BackgroundImageFix" result="shape"/>
<feGaussianBlur stdDeviation="38.2927" result="effect1_foregroundBlur_1009_690"/>
</filter>
<filter id="filter39_f_1009_690" x="352.294" y="182.208" width="176.146" height="176.146" filterUnits="userSpaceOnUse" color-interpolation-filters="sRGB">
<feFlood flood-opacity="0" result="BackgroundImageFix"/>
<feBlend mode="normal" in="SourceGraphic" in2="BackgroundImageFix" result="shape"/>
<feGaussianBlur stdDeviation="30.6341" result="effect1_foregroundBlur_1009_690"/>
</filter>
<filter id="filter40_f_1009_690" x="-0.000183105" y="117.109" width="421.219" height="421.219" filterUnits="userSpaceOnUse" color-interpolation-filters="sRGB">
<feFlood flood-opacity="0" result="BackgroundImageFix"/>
<feBlend mode="normal" in="SourceGraphic" in2="BackgroundImageFix" result="shape"/>
<feGaussianBlur stdDeviation="91.9024" result="effect1_foregroundBlur_1009_690"/>
</filter>
<filter id="filter41_f_1009_690" x="-0.000183105" y="117.109" width="421.219" height="421.219" filterUnits="userSpaceOnUse" color-interpolation-filters="sRGB">
<feFlood flood-opacity="0" result="BackgroundImageFix"/>
<feBlend mode="normal" in="SourceGraphic" in2="BackgroundImageFix" result="shape"/>
<feGaussianBlur stdDeviation="91.9024" result="effect1_foregroundBlur_1009_690"/>
</filter>
<filter id="filter42_f_1009_690" x="107.219" y="224.329" width="206.78" height="206.78" filterUnits="userSpaceOnUse" color-interpolation-filters="sRGB">
<feFlood flood-opacity="0" result="BackgroundImageFix"/>
<feBlend mode="normal" in="SourceGraphic" in2="BackgroundImageFix" result="shape"/>
<feGaussianBlur stdDeviation="38.2927" result="effect1_foregroundBlur_1009_690"/>
</filter>
<filter id="filter43_f_1009_690" x="122.536" y="239.646" width="176.146" height="176.146" filterUnits="userSpaceOnUse" color-interpolation-filters="sRGB">
<feFlood flood-opacity="0" result="BackgroundImageFix"/>
<feBlend mode="normal" in="SourceGraphic" in2="BackgroundImageFix" result="shape"/>
<feGaussianBlur stdDeviation="30.6341" result="effect1_foregroundBlur_1009_690"/>
</filter>
<filter id="filter44_f_1009_690" x="57.4412" y="117.109" width="421.219" height="421.219" filterUnits="userSpaceOnUse" color-interpolation-filters="sRGB">
<feFlood flood-opacity="0" result="BackgroundImageFix"/>
<feBlend mode="normal" in="SourceGraphic" in2="BackgroundImageFix" result="shape"/>
<feGaussianBlur stdDeviation="91.9024" result="effect1_foregroundBlur_1009_690"/>
</filter>
<filter id="filter45_f_1009_690" x="57.4412" y="117.109" width="421.219" height="421.219" filterUnits="userSpaceOnUse" color-interpolation-filters="sRGB">
<feFlood flood-opacity="0" result="BackgroundImageFix"/>
<feBlend mode="normal" in="SourceGraphic" in2="BackgroundImageFix" result="shape"/>
<feGaussianBlur stdDeviation="91.9024" result="effect1_foregroundBlur_1009_690"/>
</filter>
<filter id="filter46_f_1009_690" x="164.661" y="224.329" width="206.78" height="206.78" filterUnits="userSpaceOnUse" color-interpolation-filters="sRGB">
<feFlood flood-opacity="0" result="BackgroundImageFix"/>
<feBlend mode="normal" in="SourceGraphic" in2="BackgroundImageFix" result="shape"/>
<feGaussianBlur stdDeviation="38.2927" result="effect1_foregroundBlur_1009_690"/>
</filter>
<filter id="filter47_f_1009_690" x="179.978" y="239.646" width="176.146" height="176.146" filterUnits="userSpaceOnUse" color-interpolation-filters="sRGB">
<feFlood flood-opacity="0" result="BackgroundImageFix"/>
<feBlend mode="normal" in="SourceGraphic" in2="BackgroundImageFix" result="shape"/>
<feGaussianBlur stdDeviation="30.6341" result="effect1_foregroundBlur_1009_690"/>
</filter>
<filter id="filter48_f_1009_690" x="114.879" y="117.109" width="421.219" height="421.219" filterUnits="userSpaceOnUse" color-interpolation-filters="sRGB">
<feFlood flood-opacity="0" result="BackgroundImageFix"/>
<feBlend mode="normal" in="SourceGraphic" in2="BackgroundImageFix" result="shape"/>
<feGaussianBlur stdDeviation="91.9024" result="effect1_foregroundBlur_1009_690"/>
</filter>
<filter id="filter49_f_1009_690" x="114.879" y="117.109" width="421.219" height="421.219" filterUnits="userSpaceOnUse" color-interpolation-filters="sRGB">
<feFlood flood-opacity="0" result="BackgroundImageFix"/>
<feBlend mode="normal" in="SourceGraphic" in2="BackgroundImageFix" result="shape"/>
<feGaussianBlur stdDeviation="91.9024" result="effect1_foregroundBlur_1009_690"/>
</filter>
<filter id="filter50_f_1009_690" x="222.098" y="224.329" width="206.78" height="206.78" filterUnits="userSpaceOnUse" color-interpolation-filters="sRGB">
<feFlood flood-opacity="0" result="BackgroundImageFix"/>
<feBlend mode="normal" in="SourceGraphic" in2="BackgroundImageFix" result="shape"/>
<feGaussianBlur stdDeviation="38.2927" result="effect1_foregroundBlur_1009_690"/>
</filter>
<filter id="filter51_f_1009_690" x="237.415" y="239.646" width="176.146" height="176.146" filterUnits="userSpaceOnUse" color-interpolation-filters="sRGB">
<feFlood flood-opacity="0" result="BackgroundImageFix"/>
<feBlend mode="normal" in="SourceGraphic" in2="BackgroundImageFix" result="shape"/>
<feGaussianBlur stdDeviation="30.6341" result="effect1_foregroundBlur_1009_690"/>
</filter>
<filter id="filter52_f_1009_690" x="172.316" y="117.109" width="421.219" height="421.219" filterUnits="userSpaceOnUse" color-interpolation-filters="sRGB">
<feFlood flood-opacity="0" result="BackgroundImageFix"/>
<feBlend mode="normal" in="SourceGraphic" in2="BackgroundImageFix" result="shape"/>
<feGaussianBlur stdDeviation="91.9024" result="effect1_foregroundBlur_1009_690"/>
</filter>
<filter id="filter53_f_1009_690" x="172.316" y="117.109" width="421.219" height="421.219" filterUnits="userSpaceOnUse" color-interpolation-filters="sRGB">
<feFlood flood-opacity="0" result="BackgroundImageFix"/>
<feBlend mode="normal" in="SourceGraphic" in2="BackgroundImageFix" result="shape"/>
<feGaussianBlur stdDeviation="91.9024" result="effect1_foregroundBlur_1009_690"/>
</filter>
<filter id="filter54_f_1009_690" x="279.536" y="224.329" width="206.78" height="206.78" filterUnits="userSpaceOnUse" color-interpolation-filters="sRGB">
<feFlood flood-opacity="0" result="BackgroundImageFix"/>
<feBlend mode="normal" in="SourceGraphic" in2="BackgroundImageFix" result="shape"/>
<feGaussianBlur stdDeviation="38.2927" result="effect1_foregroundBlur_1009_690"/>
</filter>
<filter id="filter55_f_1009_690" x="294.853" y="239.646" width="176.146" height="176.146" filterUnits="userSpaceOnUse" color-interpolation-filters="sRGB">
<feFlood flood-opacity="0" result="BackgroundImageFix"/>
<feBlend mode="normal" in="SourceGraphic" in2="BackgroundImageFix" result="shape"/>
<feGaussianBlur stdDeviation="30.6341" result="effect1_foregroundBlur_1009_690"/>
</filter>
<filter id="filter56_f_1009_690" x="229.758" y="117.109" width="421.219" height="421.219" filterUnits="userSpaceOnUse" color-interpolation-filters="sRGB">
<feFlood flood-opacity="0" result="BackgroundImageFix"/>
<feBlend mode="normal" in="SourceGraphic" in2="BackgroundImageFix" result="shape"/>
<feGaussianBlur stdDeviation="91.9024" result="effect1_foregroundBlur_1009_690"/>
</filter>
<filter id="filter57_f_1009_690" x="229.758" y="117.109" width="421.219" height="421.219" filterUnits="userSpaceOnUse" color-interpolation-filters="sRGB">
<feFlood flood-opacity="0" result="BackgroundImageFix"/>
<feBlend mode="normal" in="SourceGraphic" in2="BackgroundImageFix" result="shape"/>
<feGaussianBlur stdDeviation="91.9024" result="effect1_foregroundBlur_1009_690"/>
</filter>
<filter id="filter58_f_1009_690" x="336.977" y="224.329" width="206.78" height="206.78" filterUnits="userSpaceOnUse" color-interpolation-filters="sRGB">
<feFlood flood-opacity="0" result="BackgroundImageFix"/>
<feBlend mode="normal" in="SourceGraphic" in2="BackgroundImageFix" result="shape"/>
<feGaussianBlur stdDeviation="38.2927" result="effect1_foregroundBlur_1009_690"/>
</filter>
<filter id="filter59_f_1009_690" x="352.294" y="239.646" width="176.146" height="176.146" filterUnits="userSpaceOnUse" color-interpolation-filters="sRGB">
<feFlood flood-opacity="0" result="BackgroundImageFix"/>
<feBlend mode="normal" in="SourceGraphic" in2="BackgroundImageFix" result="shape"/>
<feGaussianBlur stdDeviation="30.6341" result="effect1_foregroundBlur_1009_690"/>
</filter>
<filter id="filter60_f_1009_690" x="57.4412" y="174.551" width="421.219" height="421.219" filterUnits="userSpaceOnUse" color-interpolation-filters="sRGB">
<feFlood flood-opacity="0" result="BackgroundImageFix"/>
<feBlend mode="normal" in="SourceGraphic" in2="BackgroundImageFix" result="shape"/>
<feGaussianBlur stdDeviation="91.9024" result="effect1_foregroundBlur_1009_690"/>
</filter>
<filter id="filter61_f_1009_690" x="57.4412" y="174.551" width="421.219" height="421.219" filterUnits="userSpaceOnUse" color-interpolation-filters="sRGB">
<feFlood flood-opacity="0" result="BackgroundImageFix"/>
<feBlend mode="normal" in="SourceGraphic" in2="BackgroundImageFix" result="shape"/>
<feGaussianBlur stdDeviation="91.9024" result="effect1_foregroundBlur_1009_690"/>
</filter>
<filter id="filter62_f_1009_690" x="164.661" y="281.77" width="206.78" height="206.78" filterUnits="userSpaceOnUse" color-interpolation-filters="sRGB">
<feFlood flood-opacity="0" result="BackgroundImageFix"/>
<feBlend mode="normal" in="SourceGraphic" in2="BackgroundImageFix" result="shape"/>
<feGaussianBlur stdDeviation="38.2927" result="effect1_foregroundBlur_1009_690"/>
</filter>
<filter id="filter63_f_1009_690" x="179.978" y="297.087" width="176.146" height="176.146" filterUnits="userSpaceOnUse" color-interpolation-filters="sRGB">
<feFlood flood-opacity="0" result="BackgroundImageFix"/>
<feBlend mode="normal" in="SourceGraphic" in2="BackgroundImageFix" result="shape"/>
<feGaussianBlur stdDeviation="30.6341" result="effect1_foregroundBlur_1009_690"/>
</filter>
<filter id="filter64_f_1009_690" x="114.879" y="174.551" width="421.219" height="421.219" filterUnits="userSpaceOnUse" color-interpolation-filters="sRGB">
<feFlood flood-opacity="0" result="BackgroundImageFix"/>
<feBlend mode="normal" in="SourceGraphic" in2="BackgroundImageFix" result="shape"/>
<feGaussianBlur stdDeviation="91.9024" result="effect1_foregroundBlur_1009_690"/>
</filter>
<filter id="filter65_f_1009_690" x="114.879" y="174.551" width="421.219" height="421.219" filterUnits="userSpaceOnUse" color-interpolation-filters="sRGB">
<feFlood flood-opacity="0" result="BackgroundImageFix"/>
<feBlend mode="normal" in="SourceGraphic" in2="BackgroundImageFix" result="shape"/>
<feGaussianBlur stdDeviation="91.9024" result="effect1_foregroundBlur_1009_690"/>
</filter>
<filter id="filter66_f_1009_690" x="222.098" y="281.77" width="206.78" height="206.78" filterUnits="userSpaceOnUse" color-interpolation-filters="sRGB">
<feFlood flood-opacity="0" result="BackgroundImageFix"/>
<feBlend mode="normal" in="SourceGraphic" in2="BackgroundImageFix" result="shape"/>
<feGaussianBlur stdDeviation="38.2927" result="effect1_foregroundBlur_1009_690"/>
</filter>
<filter id="filter67_f_1009_690" x="237.415" y="297.087" width="176.146" height="176.146" filterUnits="userSpaceOnUse" color-interpolation-filters="sRGB">
<feFlood flood-opacity="0" result="BackgroundImageFix"/>
<feBlend mode="normal" in="SourceGraphic" in2="BackgroundImageFix" result="shape"/>
<feGaussianBlur stdDeviation="30.6341" result="effect1_foregroundBlur_1009_690"/>
</filter>
<filter id="filter68_f_1009_690" x="172.316" y="174.551" width="421.219" height="421.219" filterUnits="userSpaceOnUse" color-interpolation-filters="sRGB">
<feFlood flood-opacity="0" result="BackgroundImageFix"/>
<feBlend mode="normal" in="SourceGraphic" in2="BackgroundImageFix" result="shape"/>
<feGaussianBlur stdDeviation="91.9024" result="effect1_foregroundBlur_1009_690"/>
</filter>
<filter id="filter69_f_1009_690" x="172.316" y="174.551" width="421.219" height="421.219" filterUnits="userSpaceOnUse" color-interpolation-filters="sRGB">
<feFlood flood-opacity="0" result="BackgroundImageFix"/>
<feBlend mode="normal" in="SourceGraphic" in2="BackgroundImageFix" result="shape"/>
<feGaussianBlur stdDeviation="91.9024" result="effect1_foregroundBlur_1009_690"/>
</filter>
<filter id="filter70_f_1009_690" x="279.536" y="281.77" width="206.78" height="206.78" filterUnits="userSpaceOnUse" color-interpolation-filters="sRGB">
<feFlood flood-opacity="0" result="BackgroundImageFix"/>
<feBlend mode="normal" in="SourceGraphic" in2="BackgroundImageFix" result="shape"/>
<feGaussianBlur stdDeviation="38.2927" result="effect1_foregroundBlur_1009_690"/>
</filter>
<filter id="filter71_f_1009_690" x="294.853" y="297.087" width="176.146" height="176.146" filterUnits="userSpaceOnUse" color-interpolation-filters="sRGB">
<feFlood flood-opacity="0" result="BackgroundImageFix"/>
<feBlend mode="normal" in="SourceGraphic" in2="BackgroundImageFix" result="shape"/>
<feGaussianBlur stdDeviation="30.6341" result="effect1_foregroundBlur_1009_690"/>
</filter>
<filter id="filter72_f_1009_690" x="114.879" y="231.988" width="421.219" height="421.219" filterUnits="userSpaceOnUse" color-interpolation-filters="sRGB">
<feFlood flood-opacity="0" result="BackgroundImageFix"/>
<feBlend mode="normal" in="SourceGraphic" in2="BackgroundImageFix" result="shape"/>
<feGaussianBlur stdDeviation="91.9024" result="effect1_foregroundBlur_1009_690"/>
</filter>
<filter id="filter73_f_1009_690" x="114.879" y="231.988" width="421.219" height="421.219" filterUnits="userSpaceOnUse" color-interpolation-filters="sRGB">
<feFlood flood-opacity="0" result="BackgroundImageFix"/>
<feBlend mode="normal" in="SourceGraphic" in2="BackgroundImageFix" result="shape"/>
<feGaussianBlur stdDeviation="91.9024" result="effect1_foregroundBlur_1009_690"/>
</filter>
<filter id="filter74_f_1009_690" x="222.098" y="339.208" width="206.78" height="206.78" filterUnits="userSpaceOnUse" color-interpolation-filters="sRGB">
<feFlood flood-opacity="0" result="BackgroundImageFix"/>
<feBlend mode="normal" in="SourceGraphic" in2="BackgroundImageFix" result="shape"/>
<feGaussianBlur stdDeviation="38.2927" result="effect1_foregroundBlur_1009_690"/>
</filter>
<filter id="filter75_f_1009_690" x="237.415" y="354.525" width="176.146" height="176.146" filterUnits="userSpaceOnUse" color-interpolation-filters="sRGB">
<feFlood flood-opacity="0" result="BackgroundImageFix"/>
<feBlend mode="normal" in="SourceGraphic" in2="BackgroundImageFix" result="shape"/>
<feGaussianBlur stdDeviation="30.6341" result="effect1_foregroundBlur_1009_690"/>
</filter>
</defs>
</svg>
