<svg width="628" height="628" viewBox="0 0 628 628" fill="none" xmlns="http://www.w3.org/2000/svg">
<path d="M212.524 71.1602H185.719C178.317 71.1602 172.316 77.1606 172.316 84.5626V111.367C172.316 118.769 178.317 124.77 185.719 124.77H212.524C219.926 124.77 225.926 118.769 225.926 111.367V84.5626C225.926 77.1606 219.926 71.1602 212.524 71.1602Z" fill="black"/>
<path d="M269.965 71.1602H243.16C235.758 71.1602 229.758 77.1606 229.758 84.5626V111.367C229.758 118.769 235.758 124.77 243.16 124.77H269.965C277.367 124.77 283.368 118.769 283.368 111.367V84.5626C283.368 77.1606 277.367 71.1602 269.965 71.1602Z" fill="black"/>
<path d="M327.403 71.1602H300.598C293.196 71.1602 287.195 77.1606 287.195 84.5626V111.367C287.195 118.769 293.196 124.77 300.598 124.77H327.403C334.805 124.77 340.805 118.769 340.805 111.367V84.5626C340.805 77.1606 334.805 71.1602 327.403 71.1602Z" fill="black"/>
<path d="M384.84 71.1602H358.035C350.633 71.1602 344.633 77.1606 344.633 84.5626V111.367C344.633 118.769 350.633 124.77 358.035 124.77H384.84C392.242 124.77 398.243 118.769 398.243 111.367V84.5626C398.243 77.1606 392.242 71.1602 384.84 71.1602Z" fill="black"/>
<path d="M442.282 71.1602H415.477C408.075 71.1602 402.074 77.1606 402.074 84.5626V111.367C402.074 118.769 408.075 124.77 415.477 124.77H442.282C449.683 124.77 455.684 118.769 455.684 111.367V84.5626C455.684 77.1606 449.683 71.1602 442.282 71.1602Z" fill="black"/>
<path d="M155.086 128.598H128.281C120.879 128.598 114.879 134.598 114.879 142V168.805C114.879 176.207 120.879 182.207 128.281 182.207H155.086C162.488 182.207 168.489 176.207 168.489 168.805V142C168.489 134.598 162.488 128.598 155.086 128.598Z" fill="black"/>
<path d="M499.719 128.598H472.914C465.512 128.598 459.512 134.598 459.512 142V168.805C459.512 176.207 465.512 182.207 472.914 182.207H499.719C507.121 182.207 513.121 176.207 513.121 168.805V142C513.121 134.598 507.121 128.598 499.719 128.598Z" fill="black"/>
<path d="M97.6448 186.035H70.8399C63.438 186.035 57.4375 192.036 57.4375 199.438V226.242C57.4375 233.644 63.438 239.645 70.8399 239.645H97.6448C105.047 239.645 111.047 233.644 111.047 226.242V199.438C111.047 192.036 105.047 186.035 97.6448 186.035Z" fill="black"/>
<path d="M557.16 186.035H530.356C522.954 186.035 516.953 192.036 516.953 199.438V226.242C516.953 233.644 522.954 239.645 530.356 239.645H557.16C564.562 239.645 570.563 233.644 570.563 226.242V199.438C570.563 192.036 564.562 186.035 557.16 186.035Z" fill="black"/>
<path d="M97.6448 243.477H70.8399C63.438 243.477 57.4375 249.477 57.4375 256.879V283.684C57.4375 291.086 63.438 297.086 70.8399 297.086H97.6448C105.047 297.086 111.047 291.086 111.047 283.684V256.879C111.047 249.477 105.047 243.477 97.6448 243.477Z" fill="black"/>
<path d="M557.16 243.477H530.356C522.954 243.477 516.953 249.477 516.953 256.879V283.684C516.953 291.086 522.954 297.086 530.356 297.086H557.16C564.562 297.086 570.563 291.086 570.563 283.684V256.879C570.563 249.477 564.562 243.477 557.16 243.477Z" fill="black"/>
<path d="M97.6448 300.914H70.8399C63.438 300.914 57.4375 306.915 57.4375 314.317V341.121C57.4375 348.523 63.438 354.524 70.8399 354.524H97.6448C105.047 354.524 111.047 348.523 111.047 341.121V314.317C111.047 306.915 105.047 300.914 97.6448 300.914Z" fill="black"/>
<path d="M557.16 300.914H530.356C522.954 300.914 516.953 306.915 516.953 314.317V341.121C516.953 348.523 522.954 354.524 530.356 354.524H557.16C564.562 354.524 570.563 348.523 570.563 341.121V314.317C570.563 306.915 564.562 300.914 557.16 300.914Z" fill="black"/>
<path d="M155.086 358.355H128.281C120.879 358.355 114.879 364.356 114.879 371.758V398.563C114.879 405.965 120.879 411.965 128.281 411.965H155.086C162.488 411.965 168.489 405.965 168.489 398.563V371.758C168.489 364.356 162.488 358.355 155.086 358.355Z" fill="black"/>
<path d="M499.719 358.355H472.914C465.512 358.355 459.512 364.356 459.512 371.758V398.563C459.512 405.965 465.512 411.965 472.914 411.965H499.719C507.121 411.965 513.121 405.965 513.121 398.563V371.758C513.121 364.356 507.121 358.355 499.719 358.355Z" fill="black"/>
<path d="M212.524 415.793H185.719C178.317 415.793 172.316 421.793 172.316 429.195V456C172.316 463.402 178.317 469.403 185.719 469.403H212.524C219.926 469.403 225.926 463.402 225.926 456V429.195C225.926 421.793 219.926 415.793 212.524 415.793Z" fill="black"/>
<path d="M442.282 415.793H415.477C408.075 415.793 402.074 421.793 402.074 429.195V456C402.074 463.402 408.075 469.403 415.477 469.403H442.282C449.683 469.403 455.684 463.402 455.684 456V429.195C455.684 421.793 449.683 415.793 442.282 415.793Z" fill="black"/>
<path d="M212.524 473.23H185.719C178.317 473.23 172.316 479.231 172.316 486.633V513.438C172.316 520.84 178.317 526.84 185.719 526.84H212.524C219.926 526.84 225.926 520.84 225.926 513.438V486.633C225.926 479.231 219.926 473.23 212.524 473.23Z" fill="black"/>
<path d="M269.965 473.23H243.16C235.758 473.23 229.758 479.231 229.758 486.633V513.438C229.758 520.84 235.758 526.84 243.16 526.84H269.965C277.367 526.84 283.368 520.84 283.368 513.438V486.633C283.368 479.231 277.367 473.23 269.965 473.23Z" fill="black"/>
<path d="M327.403 473.23H300.598C293.196 473.23 287.195 479.231 287.195 486.633V513.438C287.195 520.84 293.196 526.84 300.598 526.84H327.403C334.805 526.84 340.805 520.84 340.805 513.438V486.633C340.805 479.231 334.805 473.23 327.403 473.23Z" fill="black"/>
<path d="M384.84 473.23H358.035C350.633 473.23 344.633 479.231 344.633 486.633V513.438C344.633 520.84 350.633 526.84 358.035 526.84H384.84C392.242 526.84 398.243 520.84 398.243 513.438V486.633C398.243 479.231 392.242 473.23 384.84 473.23Z" fill="black"/>
<path d="M442.282 473.23H415.477C408.075 473.23 402.074 479.231 402.074 486.633V513.438C402.074 520.84 408.075 526.84 415.477 526.84H442.282C449.683 526.84 455.684 520.84 455.684 513.438V486.633C455.684 479.231 449.683 473.23 442.282 473.23Z" fill="black"/>
<path d="M212.524 530.672H185.719C178.317 530.672 172.316 536.672 172.316 544.074V570.879C172.316 578.281 178.317 584.282 185.719 584.282H212.524C219.926 584.282 225.926 578.281 225.926 570.879V544.074C225.926 536.672 219.926 530.672 212.524 530.672Z" fill="black"/>
<path d="M269.965 530.672H243.16C235.758 530.672 229.758 536.672 229.758 544.074V570.879C229.758 578.281 235.758 584.282 243.16 584.282H269.965C277.367 584.282 283.368 578.281 283.368 570.879V544.074C283.368 536.672 277.367 530.672 269.965 530.672Z" fill="black"/>
<path d="M327.403 530.672H300.598C293.196 530.672 287.195 536.672 287.195 544.074V570.879C287.195 578.281 293.196 584.282 300.598 584.282H327.403C334.805 584.282 340.805 578.281 340.805 570.879V544.074C340.805 536.672 334.805 530.672 327.403 530.672Z" fill="black"/>
<path d="M384.84 530.672H358.035C350.633 530.672 344.633 536.672 344.633 544.074V570.879C344.633 578.281 350.633 584.282 358.035 584.282H384.84C392.242 584.282 398.243 578.281 398.243 570.879V544.074C398.243 536.672 392.242 530.672 384.84 530.672Z" fill="black"/>
<path d="M442.282 530.672H415.477C408.075 530.672 402.074 536.672 402.074 544.074V570.879C402.074 578.281 408.075 584.282 415.477 584.282H442.282C449.683 584.282 455.684 578.281 455.684 570.879V544.074C455.684 536.672 449.683 530.672 442.282 530.672Z" fill="black"/>
</svg>
