<svg width="40" height="40" viewBox="0 0 40 40" fill="none" xmlns="http://www.w3.org/2000/svg">
<rect width="40" height="40" fill="black"/>
<path d="M29.2344 18.1138C29.1298 17.7188 29.0875 17.3438 29.1074 16.9889C29.1253 16.6264 29.213 16.2821 29.3706 15.9558C29.5281 15.6296 29.7499 15.331 30.036 15.0602C30.3276 14.7797 30.6871 14.5098 31.1144 14.2504C31.3318 14.1197 31.5675 13.9963 31.8214 13.8803C32.0732 13.7568 32.3423 13.6368 32.6285 13.5204L32.4295 12.7682C32.4094 12.6922 32.372 12.6126 32.3175 12.5295C32.2686 12.4367 32.2181 12.3688 32.166 12.3257C32.1043 12.277 32.0409 12.2368 31.9756 12.2053C31.9084 12.1662 31.8251 12.1435 31.7259 12.1373C31.6287 12.1386 31.5421 12.1493 31.4661 12.1694C31.3977 12.1875 31.3172 12.2211 31.2244 12.27C31.1393 12.3169 31.0762 12.3702 31.035 12.4299C30.9376 12.5532 30.8872 12.7007 30.8838 12.8723C30.8776 12.9716 30.8845 13.0592 30.9046 13.1351L30.974 13.3973L28.4666 14.0609L28.2887 13.3884C28.2002 13.0541 28.1613 12.7229 28.1721 12.3949C28.1904 12.0648 28.2606 11.7617 28.3826 11.4855C28.6363 10.9387 29.0895 10.4854 29.7423 10.1256C29.8994 10.0434 30.0709 9.96954 30.2568 9.90407C30.4483 9.829 30.6467 9.76431 30.8518 9.71002C31.8927 9.43453 32.7673 9.46731 33.4754 9.80835C34.176 10.1514 34.6429 10.7636 34.8762 11.645L36.7885 18.8708L34.2242 19.5494C34.2061 19.481 34.1926 19.3993 34.1836 19.3041C34.1727 19.2013 34.1696 19.1126 34.1743 19.0382C34.1825 18.9466 34.1918 18.8588 34.2021 18.7748C34.218 18.6811 34.2366 18.5827 34.2581 18.4795C34.278 18.401 34.311 18.311 34.3573 18.2093L34.1904 18.1315C34.1251 18.3764 34.047 18.5882 33.956 18.7667C33.8707 18.9356 33.7709 19.0962 33.6567 19.2484C33.5501 19.3986 33.4243 19.5375 33.2792 19.6654C33.1398 19.7836 32.9725 19.8888 32.7774 19.9811C32.6923 20.028 32.6013 20.0684 32.5046 20.1021C32.4174 20.1414 32.3244 20.1742 32.2257 20.2003C31.9749 20.2667 31.7179 20.294 31.4547 20.2824C31.201 20.2763 30.9447 20.2141 30.6857 20.0956C30.4576 20.0016 30.2487 19.8576 30.0593 19.6639C29.8678 19.4625 29.7064 19.2369 29.5753 18.9871C29.5011 18.8604 29.4363 18.723 29.3809 18.5751C29.3254 18.4272 29.2766 18.2734 29.2344 18.1138ZM31.7532 17.0326C31.7833 17.1466 31.8229 17.2499 31.8718 17.3427C31.9263 17.4258 31.9786 17.4851 32.0287 17.5207C32.1677 17.6465 32.3258 17.7063 32.503 17.7C32.6022 17.7063 32.6936 17.6984 32.7772 17.6762C33.0355 17.6079 33.3067 17.4345 33.5907 17.156L33.0327 15.0476C32.8249 15.1839 32.6399 15.3142 32.4776 15.4384C32.3154 15.5626 32.1799 15.696 32.0713 15.8386C31.9739 15.962 31.8899 16.0899 31.8192 16.2224C31.7562 16.3529 31.7228 16.4878 31.719 16.627C31.7096 16.7758 31.721 16.911 31.7532 17.0326Z" fill="white"/>
<path d="M18.5618 11.5574L20.7422 4.21094L23.2852 4.96568L21.239 11.86C21.192 12.0183 21.1894 12.1651 21.2312 12.3004C21.2427 12.3448 21.2692 12.3937 21.3107 12.447C21.3598 12.5026 21.416 12.548 21.4794 12.5831C21.5427 12.6183 21.6045 12.6449 21.6648 12.6628C21.7251 12.6807 21.7827 12.6937 21.8377 12.7018C21.8949 12.7024 21.9559 12.7041 22.0206 12.7069C22.0929 12.712 22.155 12.7099 22.2069 12.7007C22.2611 12.684 22.3314 12.668 22.418 12.6527C22.4526 12.6465 22.4834 12.6393 22.5105 12.6309C22.5474 12.6173 22.5842 12.6036 22.621 12.59L24.7545 5.40176L27.2975 6.15651L24.3791 15.9894L21.8361 15.2347C21.8585 15.1593 21.8884 15.0862 21.9258 15.0153C21.9632 14.9445 22.0127 14.8607 22.0741 14.7642C22.1116 14.6933 22.1648 14.6107 22.2337 14.5164C22.3027 14.4221 22.3672 14.3429 22.4273 14.2787C22.4611 14.2478 22.4948 14.2168 22.5286 14.1858C22.5549 14.1526 22.5838 14.1243 22.6153 14.1009L22.545 14.0062C22.3557 14.1468 22.166 14.275 21.9759 14.3907C21.7933 14.5087 21.611 14.5981 21.429 14.6588C21.2372 14.7249 21.0499 14.7759 20.8671 14.8118C20.6941 14.8424 20.5115 14.8497 20.3195 14.8337C20.2299 14.8317 20.1388 14.8211 20.0461 14.8018C19.9588 14.7923 19.8699 14.7741 19.7795 14.7472C19.3048 14.6064 18.9389 14.3338 18.6817 13.9295C18.5584 13.7372 18.4727 13.515 18.4245 13.2629C18.3839 13.0131 18.3715 12.7511 18.3872 12.4771C18.4075 12.1879 18.4656 11.8814 18.5618 11.5574Z" fill="white"/>
<path d="M3.06067 14.7417C2.85695 13.9907 2.78212 13.2496 2.83619 12.5183C2.8882 11.7794 3.0484 11.0641 3.31679 10.3723C3.57966 9.69023 3.94276 9.06239 4.40608 8.4888C4.87698 7.91314 5.41533 7.421 6.02112 7.01235C6.32401 6.80802 6.64549 6.62716 6.98555 6.46976C7.33319 6.3103 7.69285 6.18016 8.06454 6.07933C8.83068 5.87149 9.58422 5.79737 10.3252 5.85696C11.0641 5.90897 11.7687 6.05985 12.4391 6.30961C13.2135 6.61259 13.882 7.00538 14.4445 7.48798C15.005 7.963 15.4621 8.46201 15.8157 8.98501C16.022 9.29549 16.2039 9.62075 16.3613 9.96081C16.5187 10.3009 16.6479 10.6567 16.7487 11.0284C16.9524 11.7794 17.0362 12.4937 17.0002 13.1712C16.9641 13.8488 16.8664 14.4494 16.7072 14.9731C16.5175 15.5946 16.2537 16.1833 15.9158 16.7392C15.5856 17.2929 15.1827 17.7891 14.7071 18.2275C14.2316 18.666 13.6976 19.0389 13.105 19.3462L13.8926 21.8444L11.2756 22.5543L10.5997 20.0625C9.92956 20.114 9.26819 20.0776 8.61556 19.9533C7.97051 19.827 7.35316 19.6077 6.7635 19.2953C6.17591 18.9905 5.63942 18.6189 5.15403 18.1805C4.66864 17.7421 4.24367 17.2263 3.87912 16.633C3.70372 16.3466 3.54523 16.0476 3.40365 15.7358C3.2676 15.4144 3.15327 15.083 3.06067 14.7417ZM5.7469 14.0618C5.84773 14.4335 5.99613 14.8004 6.19211 15.1626C6.39361 15.5151 6.62962 15.8298 6.90016 16.1066C7.16864 16.3758 7.46026 16.6102 7.77501 16.8099C8.0953 16.9999 8.43288 17.1485 8.78774 17.2558C9.12743 17.3673 9.49373 17.4267 9.88665 17.4341L9.33105 15.3861L11.6636 14.7533L12.2927 16.757C12.5845 16.572 12.8592 16.3387 13.1167 16.0571C13.3797 15.7658 13.591 15.4642 13.7507 15.1521C13.9304 14.7939 14.0608 14.4491 14.1419 14.1176C14.221 13.7786 14.2611 13.4012 14.2624 12.9855C14.2585 12.7911 14.2422 12.596 14.2135 12.4002C14.1828 12.1968 14.1406 11.9965 14.0871 11.7993C13.9637 11.3442 13.7723 10.9238 13.5129 10.5381C13.2515 10.1448 12.9493 9.81144 12.6064 9.538C12.2442 9.25351 11.8574 9.02861 11.4461 8.8633C11.0424 8.69594 10.6076 8.59402 10.1416 8.55754C9.68532 8.5266 9.2334 8.57183 8.78585 8.69324C8.34589 8.81259 7.93307 9.00194 7.54738 9.2613C7.16169 9.52066 6.82936 9.82662 6.55039 10.1792C6.28107 10.5373 6.05996 10.923 5.88707 11.3364C5.72176 11.7477 5.62672 12.1929 5.60195 12.6719C5.5913 12.9028 5.59787 13.1372 5.62168 13.3751C5.64343 13.6054 5.68517 13.8343 5.7469 14.0618Z" fill="white"/>
<path d="M11.2324 25.1666L13.7499 26.0023C13.74 26.0322 13.7115 26.0931 13.6644 26.1851C13.6198 26.2697 13.5776 26.3344 13.5379 26.3791C13.4808 26.4513 13.4237 26.5234 13.3666 26.5956C13.3096 26.6677 13.2326 26.7498 13.1358 26.8419C13.0986 26.8793 13.0613 26.9166 13.0241 26.9539C12.9893 26.9838 12.9496 27.0161 12.9049 27.051L13.002 27.2074C13.2131 27.0456 13.4031 26.9224 13.572 26.8377C13.7434 26.7455 13.9284 26.662 14.1272 26.5872C14.306 26.5224 14.4949 26.4774 14.6937 26.4523C14.8925 26.4272 15.0801 26.4232 15.2566 26.4404C15.3436 26.4527 15.4294 26.4688 15.5139 26.4886C15.6084 26.5034 15.7004 26.5256 15.7899 26.5553C16.0137 26.6296 16.2213 26.74 16.4129 26.8864C16.6144 27.0278 16.7737 27.1966 16.8907 27.3928C17.1199 27.8002 17.1975 28.2897 17.1237 28.8614C17.1015 29.0031 17.0731 29.1511 17.0385 29.3052C17.0038 29.4593 16.9593 29.6185 16.9048 29.7826L14.4904 37.0554L11.9729 36.2197L14.2387 29.3944C14.2684 29.3049 14.2833 29.2352 14.2832 29.1855C14.2856 29.1284 14.2781 29.0513 14.2605 28.9544C14.2456 28.8998 14.2144 28.8439 14.1671 28.7868C14.1198 28.7297 14.0751 28.6899 14.0328 28.6676C13.9631 28.6279 13.8985 28.5982 13.8388 28.5784C13.7791 28.5586 13.7207 28.5475 13.6635 28.5451C13.6089 28.5352 13.5492 28.5278 13.4846 28.5229C13.4125 28.5155 13.3491 28.5193 13.2944 28.5343C13.2423 28.5418 13.1727 28.5519 13.0857 28.5644C13.0509 28.5694 13.0149 28.5782 12.9776 28.5906C12.9503 28.5981 12.918 28.6081 12.8807 28.6206L10.5183 35.7368L8.00077 34.901L11.2324 25.1666Z" fill="white"/>
<path d="M32.9223 27.3729L33.2986 29.0888C33.4333 29.7029 33.4516 30.3185 33.3536 30.9354C33.2539 31.5447 33.0566 32.1311 32.7618 32.6946C32.467 33.2582 32.0896 33.7755 31.6297 34.2465C31.1697 34.7175 30.6422 35.1189 30.0471 35.4505C29.4383 35.7933 28.7846 36.0413 28.086 36.1945C27.3413 36.3578 26.6144 36.4006 25.9054 36.3227C25.1946 36.2372 24.5251 36.0461 23.8968 35.7494C23.3757 35.5016 22.8426 35.1438 22.2974 34.676C21.7523 34.2082 21.2761 33.5965 20.869 32.8409C20.4958 32.1664 20.2233 31.4376 20.0515 30.6545C19.8747 29.8484 19.8112 29.0818 19.8609 28.3548C19.9167 27.6184 20.0695 26.921 20.3194 26.2627C20.5985 25.5176 20.9775 24.8792 21.4564 24.3477C21.9429 23.8146 22.4453 23.3906 22.9637 23.0757C23.2779 22.8941 23.6125 22.7322 23.9676 22.59C24.3303 22.4461 24.7112 22.3303 25.1104 22.2428C25.7553 22.1013 26.3748 22.0459 26.9689 22.0765C27.5707 22.1055 28.1539 22.2149 28.7186 22.4049C29.2322 22.5819 29.7272 22.8395 30.2037 23.1775C30.6878 23.5139 31.1172 23.9307 31.4918 24.4278C31.6736 24.6696 31.8387 24.9271 31.9871 25.2003C32.1432 25.4718 32.2797 25.7638 32.3964 26.0761L29.6327 26.6823C29.5327 26.4467 29.3842 26.2097 29.1871 25.9713C28.9959 25.7236 28.7544 25.503 28.4626 25.3095C27.94 24.9816 27.3548 24.8082 26.707 24.7893C26.3754 24.7816 26.0368 24.8156 25.6914 24.8914C25.2538 24.9874 24.8467 25.1491 24.4701 25.3765C24.0918 25.5963 23.7731 25.8673 23.5139 26.1897C22.9775 26.8626 22.6833 27.6674 22.6313 28.6041C22.6061 29.0763 22.65 29.5696 22.7628 30.084C22.8806 30.6214 23.0537 31.0984 23.2818 31.5151C23.5177 31.93 23.7683 32.2653 24.0335 32.521C24.3132 32.8056 24.6352 33.0448 24.9996 33.2385C25.3716 33.4304 25.7885 33.5522 26.2505 33.6038C26.68 33.6544 27.1289 33.6284 27.5972 33.5257C27.935 33.4516 28.2529 33.3416 28.5508 33.1958C28.8487 33.05 29.1169 32.8785 29.3553 32.6814C29.58 32.4953 29.7818 32.2781 29.9606 32.0296C30.1455 31.7718 30.286 31.4956 30.3823 31.2009C30.482 30.9215 30.5451 30.6221 30.5715 30.3025L27.0592 31.0728L26.5541 28.7697L32.9223 27.3729Z" fill="white"/>
</svg>
