<svg width="146" height="56" viewBox="0 0 146 56" fill="none" xmlns="http://www.w3.org/2000/svg">
<path d="M125.956 55.9988L126.329 47.9721H136.446C137.193 47.9721 137.566 47.5988 137.566 46.8521V40.9908C137.218 41.3392 136.832 41.6752 136.409 41.9988C135.986 42.3223 135.513 42.6086 134.99 42.8574C134.393 43.1561 133.87 43.3801 133.422 43.5294C132.974 43.6788 132.464 43.8032 131.892 43.9028C131.344 44.0023 130.797 44.0521 130.249 44.0521C129.353 44.0521 128.557 43.9277 127.86 43.6788C127.188 43.4299 126.578 43.069 126.03 42.5961C124.91 41.6503 124.189 40.1943 123.865 38.2281C123.766 37.7303 123.691 37.2076 123.641 36.6601C123.591 36.1125 123.566 35.5276 123.566 34.9054V20.9427C123.566 19.7978 123.691 18.7525 123.94 17.8067C124.189 16.8609 124.512 16.052 124.91 15.38C125.309 14.6831 125.806 14.0733 126.404 13.5507C127.026 13.0031 127.723 12.6049 128.494 12.356C128.868 12.2315 129.266 12.132 129.689 12.0573C130.112 11.9826 130.548 11.9453 130.996 11.9453C131.518 11.9453 132.066 12.0075 132.638 12.132C133.211 12.2315 133.758 12.4058 134.281 12.6546C134.804 12.9284 135.314 13.2769 135.812 13.7C136.334 14.0982 136.807 14.5089 137.23 14.932C137.678 15.4049 138.139 15.9898 138.612 16.6867L139.06 16.3133C138.935 16.0893 138.786 15.828 138.612 15.5293C138.438 15.2058 138.301 14.9071 138.201 14.6333C138.102 14.4093 137.99 14.1355 137.865 13.812C137.766 13.4884 137.691 13.2022 137.641 12.9533C137.591 12.7044 137.566 12.4929 137.566 12.3186H145.966V48.5321C145.966 50.5233 145.568 52.1162 144.772 53.3108C143.975 54.5055 142.781 55.3019 141.188 55.7002C140.391 55.8993 139.495 55.9988 138.5 55.9988H125.956ZM137.94 32.8521V23.1454C137.94 22.3738 137.778 21.7142 137.454 21.1667C137.28 20.868 137.056 20.644 136.782 20.4947C136.509 20.3205 136.26 20.196 136.036 20.1213C135.712 20.0218 135.351 19.972 134.953 19.972C134.63 19.972 134.294 20.0218 133.945 20.1213C133.597 20.196 133.31 20.3205 133.086 20.4947C132.838 20.6938 132.626 20.9178 132.452 21.1667C132.302 21.3907 132.19 21.6769 132.116 22.0254C132.016 22.4236 131.966 22.7969 131.966 23.1454V32.8521C131.966 33.6236 132.128 34.2832 132.452 34.8307C132.626 35.1294 132.85 35.3659 133.124 35.5401C133.398 35.6894 133.659 35.8014 133.908 35.8761C134.206 35.9756 134.555 36.0254 134.953 36.0254C135.277 36.0254 135.613 35.9881 135.961 35.9134C136.31 35.8139 136.608 35.6645 136.857 35.4654C137.081 35.2912 137.268 35.0921 137.417 34.8681C137.591 34.6192 137.728 34.3081 137.828 33.9347C137.902 33.5614 137.94 33.2005 137.94 32.8521Z" fill="black"/>
<path d="M98.5645 12.3186H106.964C106.964 12.4182 106.94 12.6298 106.89 12.9533C106.84 13.252 106.778 13.4884 106.703 13.6627C106.604 13.9364 106.504 14.2102 106.404 14.484C106.305 14.7578 106.156 15.0813 105.956 15.4547C105.882 15.604 105.807 15.7533 105.732 15.9027C105.658 16.0271 105.571 16.164 105.471 16.3133L105.919 16.6867C106.392 15.9898 106.84 15.4298 107.263 15.0067C107.686 14.5587 108.159 14.1231 108.682 13.7C109.155 13.3267 109.677 13.0031 110.25 12.7293C110.822 12.4555 111.382 12.2564 111.93 12.132C112.204 12.0822 112.477 12.0449 112.751 12.02C113.05 11.9702 113.349 11.9453 113.647 11.9453C114.394 11.9453 115.128 12.0698 115.85 12.3186C116.597 12.5426 117.244 12.8911 117.791 13.364C118.886 14.3595 119.608 15.7533 119.957 17.5453C120.031 17.9933 120.093 18.4662 120.143 18.964C120.193 19.4618 120.218 19.9845 120.218 20.532V44.7988H111.818V22.0254C111.818 21.7267 111.793 21.5027 111.743 21.3534C111.693 21.1791 111.594 20.9551 111.445 20.6814C111.345 20.532 111.196 20.3951 110.997 20.2707C110.797 20.1462 110.623 20.0716 110.474 20.0467C110.225 19.9969 110.001 19.972 109.802 19.972C109.603 19.972 109.416 19.9969 109.242 20.0467C109.068 20.0716 108.881 20.1089 108.682 20.1587C108.458 20.2085 108.271 20.2831 108.122 20.3827C107.972 20.4574 107.773 20.5569 107.524 20.6814C107.425 20.7311 107.325 20.7933 107.226 20.868C107.151 20.9178 107.064 20.98 106.964 21.0547V44.7988H98.5645V12.3186Z" fill="black"/>
<path d="M72.3281 36.3614C72.3281 35.0672 72.5024 33.885 72.8508 32.8147C73.1992 31.7196 73.7468 30.7365 74.4935 29.8654C75.2401 28.9943 76.161 28.26 77.2561 27.6627C78.3762 27.0405 79.6953 26.5054 81.2135 26.0574C81.9851 25.8334 82.8064 25.6467 83.6775 25.4974C84.5486 25.3231 85.4695 25.1738 86.4402 25.0494V22.5854C86.4402 22.3365 86.3904 22.0627 86.2909 21.764C86.2162 21.4405 86.1166 21.1916 85.9922 21.0174C85.8429 20.8182 85.6811 20.644 85.5069 20.4947C85.3326 20.3205 85.0962 20.1836 84.7975 20.084C84.4988 20.0093 84.2251 19.972 83.9762 19.972C83.7522 19.972 83.4784 20.0093 83.1548 20.084C82.8562 20.1587 82.6197 20.2707 82.4455 20.42C82.0473 20.7187 81.7735 21.1294 81.6242 21.652C81.5246 21.9507 81.4748 22.2245 81.4748 22.4734V23.332H73.2615V21.1294C73.2615 20.0342 73.4108 18.9889 73.7095 17.9933C74.033 16.9978 74.4935 16.1267 75.0908 15.38C76.3104 13.9115 78.065 12.8911 80.3548 12.3186C80.9024 12.1942 81.4873 12.1071 82.1095 12.0573C82.7566 11.9826 83.4162 11.9453 84.0882 11.9453C87.498 11.9453 90.1486 12.7542 92.0402 14.372C93.9069 15.9898 94.8402 18.2422 94.8402 21.1294V44.7988H86.4402C86.4402 44.5748 86.4651 44.3135 86.5149 44.0148C86.5646 43.6912 86.6269 43.4174 86.7015 43.1934C86.8011 42.9197 86.9006 42.6583 87.0002 42.4094C87.1246 42.1357 87.2615 41.8494 87.4109 41.5508C87.5353 41.3268 87.7095 41.0779 87.9335 40.8041L87.4855 40.4308C87.0873 41.1277 86.6766 41.7126 86.2535 42.1854C85.8553 42.6334 85.4197 43.0441 84.9468 43.4174C84.4988 43.7908 84.0011 44.1143 83.4535 44.3881C82.9308 44.637 82.3335 44.8237 81.6615 44.9481C81.3628 45.0228 81.0517 45.0726 80.7282 45.0975C80.4295 45.1472 80.1184 45.1721 79.7948 45.1721C78.9735 45.1721 78.1646 45.0477 77.3682 44.7988C76.5966 44.5748 75.8624 44.1766 75.1655 43.6041C74.5432 43.1312 74.0206 42.5214 73.5975 41.7748C73.1744 41.0032 72.8632 40.1819 72.6641 39.3108C72.5397 38.8628 72.4526 38.3899 72.4028 37.8921C72.353 37.3943 72.3281 36.8841 72.3281 36.3614ZM80.9148 35.0921C80.9148 35.4654 80.9522 35.8139 81.0268 36.1374C81.1264 36.4361 81.2384 36.6601 81.3628 36.8094C81.6864 37.3072 82.1219 37.6183 82.6695 37.7428C82.9682 37.8423 83.2544 37.8921 83.5282 37.8921C84.3744 37.8921 85.3451 37.581 86.4402 36.9588V30.0521C85.6935 30.3009 85.0215 30.5498 84.4242 30.7987C83.8268 31.0476 83.3042 31.3463 82.8562 31.6947C82.4579 31.9934 82.0971 32.317 81.7735 32.6654C81.4748 33.0138 81.2633 33.3996 81.1388 33.8227C80.9895 34.2707 80.9148 34.6939 80.9148 35.0921Z" fill="black"/>
<path d="M47.8867 36.5871V12.3203H56.2868V35.0937C56.2868 35.6164 56.4112 36.0644 56.6601 36.4377C56.7348 36.5622 56.8592 36.6866 57.0334 36.8111C57.2325 36.9355 57.4441 37.0226 57.6681 37.0724C57.8921 37.1222 58.1037 37.1471 58.3028 37.1471C58.5019 37.1471 58.6885 37.1346 58.8628 37.1098C59.037 37.06 59.2237 37.0102 59.4228 36.9604C59.6468 36.9106 59.8334 36.8484 59.9828 36.7738C60.1321 36.6742 60.3312 36.5622 60.5801 36.4377C60.6797 36.388 60.7668 36.3382 60.8414 36.2884C60.941 36.2137 61.0406 36.1391 61.1401 36.0644V12.3203H69.5401V44.8005H61.1401C61.1401 44.5516 61.165 44.3027 61.2148 44.0538C61.2646 43.8049 61.3392 43.5062 61.4388 43.1578C61.4886 42.9089 61.5757 42.6102 61.7001 42.2618C61.8246 41.9133 61.949 41.6147 62.0734 41.3658C62.1481 41.2413 62.2228 41.1169 62.2974 40.9924C62.3472 40.868 62.4095 40.756 62.4841 40.6564L62.1855 40.4324C61.7374 41.0298 61.277 41.5898 60.8041 42.1124C60.3561 42.6351 59.8832 43.0707 59.3854 43.4191C58.8628 43.7924 58.3401 44.116 57.8174 44.3898C57.3197 44.6387 56.7721 44.8253 56.1748 44.9498C55.901 45.0245 55.6148 45.0742 55.3161 45.0991C55.0423 45.1489 54.7561 45.1738 54.4574 45.1738C52.8894 45.1738 51.533 44.676 50.3881 43.6804C49.8405 43.2076 49.3801 42.6102 49.0067 41.8884C48.6583 41.1667 48.3845 40.3827 48.1854 39.5364C47.9863 38.6404 47.8867 37.6573 47.8867 36.5871Z" fill="black"/>
<path d="M0 22.3254C0 19.8614 0.38578 17.5343 1.15734 15.3441C1.9289 13.1289 3.01157 11.0756 4.40535 9.18404C5.77425 7.31736 7.40448 5.69958 9.29604 4.33068C11.2125 2.96179 13.2658 1.90401 15.4561 1.15734C16.5512 0.784004 17.6836 0.497781 18.8534 0.298668C20.0481 0.0995561 21.2552 0 22.4748 0C24.9886 0 27.353 0.398223 29.5681 1.19467C31.7832 1.96623 33.8117 3.01157 35.6535 4.33068C37.7691 5.89869 39.4864 7.65337 40.8055 9.59471C42.1246 11.5112 43.1077 13.4152 43.7549 15.3067C44.1282 16.4267 44.4144 17.5716 44.6135 18.7414C44.8126 19.9112 44.9122 21.1059 44.9122 22.3254C44.9122 24.7894 44.5762 27.0419 43.9042 29.0828C43.2322 31.1237 42.4357 32.8784 41.5148 34.3468C40.4197 36.089 39.1255 37.6695 37.6322 39.0882C36.1637 40.5068 34.521 41.6891 32.7041 42.6349C30.8872 43.5806 28.9459 44.2775 26.8801 44.7255L27.2161 53.0136H18.6294V44.8375C16.5387 44.4393 14.5476 43.7797 12.6561 42.8589C10.7894 41.938 9.08448 40.7557 7.54137 39.3122C5.99825 37.8935 4.66669 36.313 3.54668 34.5708C2.42668 32.8286 1.55556 30.8997 0.933337 28.7841C0.634669 27.7637 0.398224 26.7183 0.224001 25.6481C0.074667 24.553 0 23.4454 0 22.3254ZM8.77337 22.4748C8.77337 23.6943 8.92271 24.9388 9.22137 26.2081C9.54493 27.4526 10.0054 28.6099 10.6027 29.6801C11.2 30.7255 11.8969 31.6837 12.6934 32.5548C13.5147 33.401 14.4232 34.1353 15.4187 34.7575C16.3645 35.3797 17.4347 35.865 18.6294 36.2135V29.4935H26.2828L26.5441 36.1388C27.5895 35.8153 28.6223 35.3299 29.6428 34.6828C30.6881 34.0108 31.5841 33.2641 32.3308 32.4428C33.177 31.497 33.8615 30.5512 34.3841 29.6055C34.9068 28.6348 35.3424 27.5148 35.6908 26.2454C35.8402 25.6481 35.9522 25.0383 36.0268 24.4161C36.1015 23.769 36.1388 23.1219 36.1388 22.4748C36.1388 20.9814 35.9024 19.5379 35.4295 18.1441C34.9566 16.7254 34.3095 15.4561 33.4881 14.3361C32.617 13.1663 31.6215 12.1583 30.5015 11.312C29.4063 10.4658 28.1619 9.79382 26.7681 9.29604C25.3992 8.82315 23.9805 8.5867 22.5121 8.5867C21.0685 8.5867 19.6499 8.82315 18.2561 9.29604C16.8623 9.76893 15.593 10.4285 14.4481 11.2747C13.3281 12.1458 12.3325 13.1414 11.4614 14.2614C10.6152 15.3814 9.9556 16.6632 9.48271 18.1067C9.25871 18.8036 9.08448 19.5254 8.96004 20.2721C8.83559 20.9939 8.77337 21.7281 8.77337 22.4748Z" fill="black"/>
</svg>
